<svg width="44" height="28" viewBox="0 0 44 28" fill="none" xmlns="http://www.w3.org/2000/svg">
<g id="Frame" clip-path="url(#clip0_4071_622)">
<path id="Vector" d="M23.208 16.8278V27.9998H11.84C8.74133 27.9998 6.072 26.9172 3.832 24.7518C1.61067 22.5678 0.5 19.9265 0.5 16.8278C0.5 13.7292 1.61067 11.0878 3.832 8.90383C6.072 6.70117 8.74133 5.59983 11.84 5.59983C14.9387 5.59983 17.608 6.70117 19.848 8.90383C22.088 11.0878 23.208 13.7292 23.208 16.8278ZM18.448 23.5478V16.8278C18.448 14.9798 17.804 13.3932 16.516 12.0678C15.2467 10.7238 13.688 10.0518 11.84 10.0518C9.992 10.0518 8.424 10.7238 7.136 12.0678C5.86667 13.3932 5.232 14.9798 5.232 16.8278C5.232 18.6758 5.86667 20.2625 7.136 21.5878C8.424 22.8945 9.992 23.5478 11.84 23.5478H18.448ZM30.0868 16.8278C30.0868 18.6758 30.7308 20.2625 32.0188 21.5878C33.3068 22.8945 34.8748 23.5478 36.7228 23.5478H38.8788C40.1108 23.5478 41.1562 23.9865 42.0148 24.8638C42.8922 25.7225 43.3308 26.7678 43.3308 27.9998H36.7228C33.6242 27.9998 30.9548 26.9172 28.7148 24.7518C26.4935 22.5678 25.3828 19.9265 25.3828 16.8278V0.027832C26.6708 0.027832 27.7722 0.494499 28.6868 1.42783C29.6202 2.3425 30.0868 3.44383 30.0868 4.73183V16.8278Z" fill="#47D9EB"/>
</g>
<defs>
<clipPath id="clip0_4071_622">
<rect width="43" height="28" fill="white" transform="translate(0.5)"/>
</clipPath>
</defs>
</svg>
