<svg width="154" height="115" viewBox="0 0 154 115" fill="none" xmlns="http://www.w3.org/2000/svg">
<path d="M153.305 100.572H0.695312V100.649H153.305V100.572Z" fill="#EBEBEB"/>
<path d="M138.013 105.483H121.815V105.56H138.013V105.483Z" fill="#EBEBEB"/>
<path d="M101.79 104.528H83.8857V104.605H101.79V104.528Z" fill="#EBEBEB"/>
<path d="M122.596 104.088H116.739V104.165H122.596V104.088Z" fill="#EBEBEB"/>
<path d="M44.5432 103.164H31.3608V103.24H44.5432V103.164Z" fill="#EBEBEB"/>
<path d="M29.6603 103.164H24.9478V103.24H29.6603V103.164Z" fill="#EBEBEB"/>
<path d="M57.3651 104.452H40.8223V104.528H57.3651V104.452Z" fill="#EBEBEB"/>
<path d="M73.0323 86.9599H14.0977C13.636 86.9591 13.1935 86.7751 12.8673 86.4484C12.5411 86.1216 12.3579 85.6788 12.3579 85.2171V2.37158C12.3619 1.91254 12.5469 1.47362 12.8726 1.15016C13.1984 0.826704 13.6386 0.644829 14.0977 0.644043H73.0323C73.4946 0.644043 73.9379 0.827659 74.2647 1.1545C74.5915 1.48134 74.7751 1.92462 74.7751 2.38684V85.2171C74.7751 85.6793 74.5915 86.1226 74.2647 86.4495C73.9379 86.7763 73.4946 86.9599 73.0323 86.9599ZM14.0977 0.705087C13.6562 0.705895 13.2331 0.881828 12.9212 1.19427C12.6094 1.50671 12.4342 1.93013 12.4342 2.37158V85.2171C12.4342 85.6586 12.6094 86.082 12.9212 86.3944C13.2331 86.7069 13.6562 86.8828 14.0977 86.8836H73.0323C73.4741 86.8828 73.8975 86.707 74.2098 86.3946C74.5222 86.0823 74.698 85.6588 74.6988 85.2171V2.37158C74.698 1.92985 74.5222 1.50644 74.2098 1.19408C73.8975 0.881729 73.4741 0.705894 73.0323 0.705087H14.0977Z" fill="#EBEBEB"/>
<path d="M139.054 86.9599H80.1163C79.6544 86.9591 79.2115 86.7752 78.8849 86.4486C78.5582 86.1219 78.3743 85.6791 78.3735 85.2171V2.37158C78.3784 1.91226 78.564 1.47335 78.8902 1.14997C79.2165 0.826597 79.657 0.644821 80.1163 0.644043H139.054C139.513 0.645631 139.952 0.827861 140.277 1.15123C140.602 1.47461 140.787 1.91307 140.791 2.37158V85.2171C140.791 85.6783 140.608 86.1206 140.282 86.4473C139.957 86.774 139.515 86.9583 139.054 86.9599ZM80.1163 0.705087C79.6746 0.705894 79.2512 0.881729 78.9388 1.19408C78.6265 1.50644 78.4506 1.92985 78.4498 2.37158V85.2171C78.4506 85.6588 78.6265 86.0823 78.9388 86.3946C79.2512 86.707 79.6746 86.8828 80.1163 86.8836H139.054C139.496 86.8828 139.919 86.707 140.232 86.3946C140.544 86.0823 140.72 85.6588 140.721 85.2171V2.37158C140.72 1.92985 140.544 1.50644 140.232 1.19408C139.919 0.881729 139.496 0.705894 139.054 0.705087H80.1163Z" fill="#EBEBEB"/>
<path d="M36.5464 78.4077H18.0105C17.1474 78.4077 16.4478 79.1074 16.4478 79.9704V80.645C16.4478 81.508 17.1474 82.2077 18.0105 82.2077H36.5464C37.4095 82.2077 38.1091 81.508 38.1091 80.645V79.9704C38.1091 79.1074 37.4095 78.4077 36.5464 78.4077Z" fill="#EBEBEB"/>
<path d="M22.4573 82.2075H19.4082L15.9409 100.573H18.9901L22.4573 82.2075Z" fill="#E0E0E0"/>
<path d="M28.5434 82.2075H25.4943L23.7881 100.573H26.8372L28.5434 82.2075Z" fill="#E0E0E0"/>
<path d="M32.0991 82.2075H35.1483L38.6186 100.573H35.5695L32.0991 82.2075Z" fill="#E0E0E0"/>
<path d="M132.186 5.42041H60.8721V67.5477H132.186V5.42041Z" fill="#E6E6E6"/>
<path d="M134.326 5.42041H61.8701V67.5477H134.326V5.42041Z" fill="#F0F0F0"/>
<path d="M132.186 67.5508H60.8721V68.7533H132.186V67.5508Z" fill="#E6E6E6"/>
<path d="M135.468 67.5508H63.0117V68.7533H135.468V67.5508Z" fill="#F0F0F0"/>
<path d="M131.329 65.6188V7.35254L64.8647 7.35254V65.6188H131.329Z" fill="#FAFAFA"/>
<path d="M86.1138 65.6188L98.643 7.35254H106.942L94.4127 65.6188H86.1138Z" fill="white"/>
<path d="M76.4263 65.6188L88.9555 7.35254H97.2544L84.7252 65.6188H76.4263Z" fill="white"/>
<path d="M66.4302 7.51125V61.9562C66.4302 62.0447 66.5401 62.1149 66.6744 62.1149H66.9979C67.1322 62.1149 67.2421 62.0447 67.2421 61.9562V7.51125C67.2421 7.42274 67.1322 7.35254 66.9979 7.35254H66.6744C66.5401 7.35864 66.4302 7.42274 66.4302 7.51125Z" fill="#F0F0F0"/>
<path d="M107.455 65.6188L119.984 7.35254H123.219L110.69 65.6188H107.455Z" fill="white"/>
<path d="M131.329 65.6188V7.35254H130.948V65.6188H131.329Z" fill="#E6E6E6"/>
<path opacity="0.5" d="M135.035 9.77001H63.7201L63.4424 8.10352H134.76L135.035 9.77001Z" fill="#E0E0E0"/>
<path opacity="0.5" d="M135.035 15.4899H63.7201L63.4424 13.8203H134.76L135.035 15.4899Z" fill="#E0E0E0"/>
<path opacity="0.5" d="M135.035 21.2065H63.7201L63.4424 19.54H134.76L135.035 21.2065Z" fill="#E0E0E0"/>
<path opacity="0.5" d="M135.035 26.9263H63.7201L63.4424 25.2598H134.76L135.035 26.9263Z" fill="#E0E0E0"/>
<path opacity="0.5" d="M135.035 32.6431H63.7201L63.4424 30.9766H134.76L135.035 32.6431Z" fill="#E0E0E0"/>
<path opacity="0.5" d="M135.035 38.3628H63.7201L63.4424 36.6963H134.76L135.035 38.3628Z" fill="#E0E0E0"/>
<path opacity="0.5" d="M135.035 12.6299H63.7201L63.4424 10.9634H134.76L135.035 12.6299Z" fill="#E0E0E0"/>
<path opacity="0.5" d="M135.035 18.3467H63.7201L63.4424 16.6802H134.76L135.035 18.3467Z" fill="#E0E0E0"/>
<path opacity="0.5" d="M135.035 24.0664H63.7201L63.4424 22.3999H134.76L135.035 24.0664Z" fill="#E0E0E0"/>
<path opacity="0.5" d="M135.035 29.7832H63.7201L63.4424 28.1167H134.76L135.035 29.7832Z" fill="#E0E0E0"/>
<path opacity="0.5" d="M135.035 35.5029H63.7201L63.4424 33.8364H134.76L135.035 35.5029Z" fill="#E0E0E0"/>
<path opacity="0.5" d="M135.035 41.2226H63.7201L63.4424 39.5562H134.76L135.035 41.2226Z" fill="#E0E0E0"/>
<path d="M132.187 72.2603H122.743V100.572H132.187V72.2603Z" fill="#E6E6E6"/>
<path d="M126.433 100.572H132.187V97.3218H120.402L126.433 100.572Z" fill="#EBEBEB"/>
<path d="M103.88 72.2603H94.437V100.572H103.88V72.2603Z" fill="#E6E6E6"/>
<path d="M132.187 72.2603H98.8628V99.8978H132.187V72.2603Z" fill="#EBEBEB"/>
<path d="M104.616 100.572H98.8628V97.3218H110.647L104.616 100.572Z" fill="#EBEBEB"/>
<path d="M127.724 75.4468H103.325V89.6852H127.724V75.4468Z" fill="#FAFAFA"/>
<path d="M127.724 91.1353H103.325V97.9111H127.724V91.1353Z" fill="#FAFAFA"/>
<path d="M117.799 76.1733H113.251C112.903 76.1725 112.57 76.0338 112.325 75.7878C112.079 75.5418 111.941 75.2084 111.941 74.8608H119.12C119.12 75.034 119.086 75.2054 119.019 75.3652C118.953 75.525 118.855 75.6701 118.733 75.7921C118.61 75.9141 118.464 76.0106 118.304 76.076C118.143 76.1414 117.972 76.1745 117.799 76.1733Z" fill="#EBEBEB"/>
<path d="M117.799 91.8587H113.251C112.904 91.8587 112.57 91.7207 112.325 91.4752C112.079 91.2296 111.941 90.8966 111.941 90.5493H119.12C119.12 90.7223 119.086 90.8936 119.019 91.0532C118.953 91.2129 118.855 91.3578 118.732 91.4795C118.609 91.6013 118.464 91.6975 118.303 91.7626C118.143 91.8276 117.972 91.8603 117.799 91.8587Z" fill="#EBEBEB"/>
<path d="M96.3082 72.2603H86.8647V100.572H96.3082V72.2603Z" fill="#E6E6E6"/>
<path d="M90.558 100.572H96.3083V97.3218H84.5269L90.558 100.572Z" fill="#EBEBEB"/>
<path d="M68.005 72.2603H58.5615V100.572H68.005V72.2603Z" fill="#E6E6E6"/>
<path d="M96.3111 72.2603H62.9873V99.8978H96.3111V72.2603Z" fill="#EBEBEB"/>
<path d="M68.7376 100.572H62.9873V97.3218H74.7688L68.7376 100.572Z" fill="#EBEBEB"/>
<path d="M91.8489 75.4468H67.4497V89.6852H91.8489V75.4468Z" fill="#FAFAFA"/>
<path d="M91.8489 91.1353H67.4497V97.9111H91.8489V91.1353Z" fill="#FAFAFA"/>
<path d="M81.9201 76.1733H77.3754C77.0276 76.1725 76.6942 76.0339 76.4483 75.788C76.2023 75.542 76.0638 75.2087 76.063 74.8608H83.2326C83.2326 75.2089 83.0943 75.5427 82.8482 75.7889C82.602 76.035 82.2682 76.1733 81.9201 76.1733Z" fill="#EBEBEB"/>
<path d="M81.9201 91.8587H77.3754C77.0279 91.8587 76.6945 91.7208 76.4485 91.4754C76.2024 91.2299 76.0638 90.8969 76.063 90.5493H83.2326C83.2326 90.7215 83.1986 90.892 83.1326 91.0511C83.0666 91.2102 82.9699 91.3546 82.848 91.4763C82.7261 91.5979 82.5814 91.6943 82.4222 91.7599C82.2629 91.8255 82.0923 91.8591 81.9201 91.8587Z" fill="#EBEBEB"/>
<path d="M63.085 72.2603L132.187 72.2603V71.0729L63.085 71.0729V72.2603Z" fill="#F0F0F0"/>
<path d="M63.0849 71.0698H58.5615V72.2571H63.0849V71.0698Z" fill="#E0E0E0"/>
<path d="M26.4528 73.8595C26.0225 62.7679 25.5646 51.7403 26.5047 46.1762L28.0308 45.0957C28.0308 45.0957 27.6951 46.1304 27.518 63.125C27.341 80.1196 27.1243 71.3354 27.3105 73.8595H26.4528Z" fill="#E6E6E6"/>
<path d="M28.9188 34.5231C31.2782 28.376 36.7752 22.4395 42.7452 20.01C45.0893 19.0577 41.7136 40.0232 33.2132 41.3753C29.0623 42.0346 27.7681 52.6684 27.0692 57.7655C26.8311 47.7239 26.5595 40.6702 28.9188 34.5231Z" fill="#E6E6E6"/>
<path d="M28.4153 50.1292C30.0757 47.4982 32.7891 43.8112 36.7539 43.8081C41.2467 43.8081 37.3155 51.2066 32.0321 53.5751C29.453 54.7288 27.3012 58.3915 26.7427 60.6867C26.7915 56.0321 26.7549 52.7602 28.4153 50.1292Z" fill="#E6E6E6"/>
<path d="M24.3742 42.175C21.4869 37.0595 15.0528 31.9135 8.19763 29.5725C5.50866 28.6569 5.24312 43.8079 19.741 47.4339C24.4261 48.606 26.3032 56.8957 27.2738 61.065C27.1975 52.9675 27.2494 47.2905 24.3742 42.175Z" fill="#E6E6E6"/>
<path d="M25.9554 54.3044C24.1241 51.0447 19.1124 49.4514 14.6134 49.7567C12.8493 49.8757 12.6539 56.5661 22.4789 59.1513C25.4579 59.9357 26.6604 65.1824 27.28 67.8378C27.2281 62.6796 27.7928 57.5672 25.9554 54.3044Z" fill="#E6E6E6"/>
<path d="M26.1444 37.0809C24.713 32.5209 20.4979 28.434 16.6308 26.7461C15.1047 26.0838 14.6438 33.6441 22.9488 41.0456C25.4669 43.292 26.2604 49.8329 26.6725 53.1476C26.8586 47.2294 27.5759 41.6408 26.1444 37.0809Z" fill="#E6E6E6"/>
<path d="M26.9014 78.4076C23.8797 78.4076 21.383 78.1879 21.2121 74.101L20.7085 68.7383H33.0973L32.5937 74.101C32.4197 78.1879 29.9231 78.4076 26.9014 78.4076Z" fill="#F0F0F0"/>
<path d="M33.1432 70.948H20.6628L20.3057 68.436H33.5003L33.1432 70.948Z" fill="#F0F0F0"/>
<path d="M77.0002 114.356C109.684 114.356 136.179 112.81 136.179 110.901C136.179 108.993 109.684 107.446 77.0002 107.446C44.3166 107.446 17.8213 108.993 17.8213 110.901C17.8213 112.81 44.3166 114.356 77.0002 114.356Z" fill="#F5F5F5"/>
<path d="M22.8381 13.6556L22.5332 13.6704L22.8323 19.8072L23.1371 19.7923L22.8381 13.6556Z" fill="#00B7CC"/>
<path d="M23.2341 21.868L22.9292 21.8828L23.0761 24.8978L23.381 24.883L23.2341 21.868Z" fill="#00B7CC"/>
<path d="M118.736 75.9478H27.1487C27.0082 75.947 26.8735 75.892 26.7728 75.7941C26.6721 75.6962 26.6132 75.5631 26.6084 75.4228L23.3243 7.96944C23.321 7.89647 23.3325 7.82358 23.3582 7.75519C23.3838 7.6868 23.4231 7.62433 23.4736 7.57155C23.5241 7.51877 23.5848 7.47678 23.652 7.44811C23.7192 7.41945 23.7915 7.40471 23.8645 7.40479H115.458C115.597 7.40457 115.73 7.4576 115.831 7.55297C115.932 7.64835 115.993 7.77882 116.001 7.91755L119.285 75.3953C119.286 75.4679 119.273 75.5401 119.246 75.6075C119.219 75.6748 119.178 75.7361 119.127 75.7876C119.076 75.8391 119.015 75.8798 118.948 75.9073C118.88 75.9348 118.808 75.9486 118.736 75.9478Z" fill="#00B7CC"/>
<path opacity="0.8" d="M27.6613 74.3242L24.4839 9.06234C24.4807 8.98922 24.4922 8.91619 24.5178 8.84763C24.5434 8.77908 24.5827 8.71641 24.6331 8.66339C24.6836 8.61037 24.7442 8.56809 24.8114 8.53909C24.8786 8.51009 24.951 8.49497 25.0242 8.49463H114.395C114.534 8.49449 114.668 8.54804 114.769 8.64413C114.87 8.74022 114.929 8.87144 114.936 9.01045L118.113 74.2723C118.117 74.3456 118.105 74.4188 118.08 74.4875C118.054 74.5563 118.015 74.6191 117.965 74.6722C117.914 74.7253 117.853 74.7676 117.786 74.7964C117.718 74.8253 117.646 74.8401 117.573 74.84H28.2015C28.0626 74.8394 27.9292 74.7856 27.8287 74.6897C27.7282 74.5937 27.6683 74.463 27.6613 74.3242Z" fill="white"/>
<path d="M50.1101 71.1928C50.0392 71.1921 49.9712 71.1647 49.9196 71.1161C49.8681 71.0674 49.8369 71.001 49.8323 70.9303L46.9846 12.432C46.9793 12.3937 46.9819 12.3547 46.9925 12.3175C47.0031 12.2802 47.0214 12.2457 47.0461 12.2159C47.0709 12.1861 47.1015 12.1619 47.1362 12.1447C47.1709 12.1275 47.2088 12.1177 47.2474 12.116C47.2861 12.1143 47.3247 12.1207 47.3607 12.1348C47.3968 12.1488 47.4295 12.1703 47.4567 12.1977C47.484 12.2252 47.5053 12.2581 47.5191 12.2942C47.5329 12.3303 47.539 12.369 47.5371 12.4076L50.3878 70.9028C50.3895 70.9393 50.3839 70.9757 50.3714 71.0101C50.359 71.0444 50.3398 71.0759 50.3152 71.1029C50.2905 71.1298 50.2608 71.1516 50.2277 71.167C50.1946 71.1824 50.1588 71.1912 50.1223 71.1928H50.1101Z" fill="white"/>
<path d="M95.3376 71.1928C95.2667 71.1921 95.1987 71.1647 95.1472 71.1161C95.0957 71.0674 95.0645 71.001 95.0599 70.9303L92.2122 12.432C92.2068 12.3937 92.2095 12.3547 92.2201 12.3175C92.2307 12.2802 92.2489 12.2457 92.2737 12.2159C92.2984 12.1861 92.3291 12.1619 92.3637 12.1447C92.3984 12.1275 92.4363 12.1177 92.475 12.116C92.5136 12.1143 92.5522 12.1207 92.5883 12.1348C92.6243 12.1488 92.657 12.1703 92.6843 12.1977C92.7116 12.2252 92.7328 12.2581 92.7466 12.2942C92.7605 12.3303 92.7666 12.369 92.7646 12.4076L95.6184 70.9028C95.62 70.9393 95.6145 70.9757 95.602 71.0101C95.5895 71.0444 95.5704 71.0759 95.5458 71.1029C95.5211 71.1298 95.4914 71.1516 95.4583 71.167C95.4252 71.1824 95.3894 71.1912 95.3529 71.1928H95.3376Z" fill="white"/>
<path d="M72.7269 71.1928C72.656 71.1921 72.588 71.1647 72.5365 71.1161C72.485 71.0674 72.4538 71.001 72.4491 70.9303L69.5984 12.432C69.593 12.3937 69.5957 12.3547 69.6063 12.3175C69.6169 12.2802 69.6351 12.2457 69.6599 12.2159C69.6846 12.1861 69.7153 12.1619 69.75 12.1447C69.7846 12.1275 69.8225 12.1177 69.8612 12.116C69.8999 12.1143 69.9384 12.1207 69.9745 12.1348C70.0105 12.1488 70.0432 12.1703 70.0705 12.1977C70.0978 12.2252 70.119 12.2581 70.1329 12.2942C70.1467 12.3303 70.1528 12.369 70.1508 12.4076L72.9985 70.9028C73.0006 70.9391 72.9954 70.9755 72.9833 71.0098C72.9712 71.0441 72.9523 71.0757 72.9279 71.1027C72.9035 71.1296 72.874 71.1515 72.841 71.167C72.8081 71.1824 72.7724 71.1912 72.736 71.1928H72.7269Z" fill="white"/>
<path d="M112.601 18.4597H27.7101C27.6714 18.4638 27.6323 18.4597 27.5953 18.4477C27.5582 18.4357 27.5242 18.416 27.4952 18.3899C27.4663 18.3639 27.4432 18.3321 27.4273 18.2965C27.4115 18.2609 27.4033 18.2224 27.4033 18.1835C27.4033 18.1446 27.4115 18.1061 27.4273 18.0705C27.4432 18.035 27.4663 18.0031 27.4952 17.9771C27.5242 17.951 27.5582 17.9314 27.5953 17.9193C27.6323 17.9073 27.6714 17.9032 27.7101 17.9073H112.601C112.639 17.9032 112.678 17.9073 112.716 17.9193C112.753 17.9314 112.787 17.951 112.816 17.9771C112.844 18.0031 112.868 18.035 112.883 18.0705C112.899 18.1061 112.907 18.1446 112.907 18.1835C112.907 18.2224 112.899 18.2609 112.883 18.2965C112.868 18.3321 112.844 18.3639 112.816 18.3899C112.787 18.416 112.753 18.4357 112.716 18.4477C112.678 18.4597 112.639 18.4638 112.601 18.4597Z" fill="white"/>
<path d="M30.2682 15.0417C30.4657 14.9626 30.6789 14.9308 30.8909 14.9488C31.1029 14.9669 31.3077 15.0342 31.489 15.1455C31.7943 15.3408 31.9804 15.7559 32.365 15.8475C32.8015 15.936 32.9358 15.5789 33.244 15.3744C33.6347 15.115 34.2299 15.2309 34.6664 15.2645C35.8242 15.35 36.9809 15.4517 38.1367 15.5697C39.2782 15.6796 40.4319 15.875 41.5704 15.6521C41.9641 15.5758 41.7963 14.9746 41.4056 15.0417C40.2397 15.2706 39.0035 15.0203 37.8345 14.9074C36.6656 14.7945 35.4874 14.6877 34.3093 14.6022C33.9069 14.5525 33.4985 14.5964 33.1159 14.7304C32.9354 14.8104 32.7733 14.9268 32.6397 15.0722C32.5909 15.1211 32.542 15.2218 32.4627 15.2096C32.3833 15.1974 32.2948 15.0173 32.2643 14.9807C31.9988 14.6809 31.6493 14.468 31.2612 14.3695C30.8731 14.271 30.4644 14.2914 30.0881 14.4282C29.7188 14.5747 29.8775 15.176 30.2529 15.0387L30.2682 15.0417Z" fill="white"/>
<path d="M50.8766 15.9571C51.3405 15.6092 52.0395 15.1452 52.421 15.8411C52.6133 16.1891 52.7995 16.6072 53.2787 16.534C53.7579 16.4607 54.0753 15.8655 54.411 15.5847C54.9116 15.1605 55.4183 15.0353 56.0043 15.3772C56.4605 15.7071 56.9801 15.9388 57.5304 16.0578C58.0582 16.1235 58.5938 16.0378 59.0748 15.8106C59.351 15.6535 59.6544 15.5499 59.9691 15.5054C60.3029 15.5311 60.635 15.5749 60.9641 15.6366C61.676 15.6641 62.3883 15.5964 63.0823 15.4352C63.476 15.3619 63.3082 14.7606 62.9144 14.8247C62.161 15.0039 61.3819 15.0483 60.6131 14.956C60.3341 14.8914 60.0468 14.8708 59.7615 14.8949C59.4925 14.9427 59.2316 15.028 58.9863 15.1483C58.3483 15.426 57.7318 15.5603 57.0634 15.2643C56.5445 15.0353 56.1477 14.6111 55.5617 14.5256C55.075 14.4763 54.5885 14.6199 54.2065 14.9255C53.9891 15.0947 53.785 15.2804 53.5961 15.481C53.5131 15.5892 53.4223 15.6912 53.3244 15.7862C53.1718 15.8991 53.1596 15.8869 53.0681 15.719C52.8453 15.3009 52.6316 14.959 52.131 14.8583C51.5359 14.7393 51.0231 15.0628 50.5683 15.4047C50.2631 15.6427 50.5683 16.183 50.8735 15.9418L50.8766 15.9571Z" fill="white"/>
<path d="M74.2528 15.7862C74.616 15.6153 74.9853 15.4596 75.3638 15.3253C75.7329 15.1628 76.1254 15.0597 76.5267 15.0201C76.8777 15.0201 77.186 15.2215 77.5217 15.2948C77.7799 15.3524 78.0498 15.3245 78.2908 15.2154C78.5106 15.1147 78.7365 14.8675 78.9745 14.8278C79.2126 14.7881 79.4751 15.1025 79.7101 15.2093C79.9482 15.3087 80.2094 15.3394 80.464 15.2978C80.699 15.2704 81.0439 15.1483 81.2637 15.2978C81.4834 15.4474 81.5292 15.7129 81.749 15.8442C81.8431 15.9011 81.9502 15.9333 82.0602 15.9375C82.1702 15.9418 82.2794 15.9181 82.3777 15.8686C82.5975 15.7618 82.7165 15.5634 82.8996 15.4047C83.1682 15.1788 83.4796 15.3039 83.7878 15.3772C84.0642 15.4568 84.3531 15.4837 84.6394 15.4566C84.9599 15.4138 85.3322 15.2093 85.6558 15.2734C86.193 15.3803 86.4707 15.948 87.0689 15.6549C87.4291 15.4779 87.1147 14.9407 86.7637 15.1178C86.6111 15.191 86.1685 14.8125 86.022 14.7393C85.7591 14.6377 85.471 14.6206 85.1979 14.6905C84.8736 14.7981 84.5321 14.8447 84.1907 14.8278C83.905 14.7539 83.6157 14.6948 83.3239 14.6508C83.0655 14.6288 82.8077 14.7003 82.5975 14.8522C82.4784 14.9407 82.2221 15.3345 82.0664 15.3009C81.9962 15.3009 81.8833 15.0537 81.8405 14.9957C81.7708 14.902 81.6851 14.8214 81.5872 14.7576C81.3729 14.6378 81.1255 14.5907 80.8822 14.6233C80.6109 14.691 80.33 14.7106 80.052 14.6813C79.7895 14.605 79.6155 14.3486 79.353 14.257C78.7609 14.0525 78.477 14.5378 77.9704 14.6874C77.6438 14.782 77.308 14.5501 76.9998 14.4676C76.6807 14.3837 76.3452 14.3837 76.0261 14.4676C75.3094 14.6622 74.6133 14.9259 73.9476 15.2551C73.5874 15.426 73.9018 15.9632 74.2528 15.7923V15.7862Z" fill="white"/>
<path d="M95.054 15.6181L96.7174 15.145C96.9799 15.0687 97.2454 14.9772 97.511 14.9192C97.7715 14.8795 98.0379 14.9278 98.2679 15.0565C98.7192 15.1947 99.192 15.2485 99.6628 15.2152C100.218 15.2152 100.771 15.2152 101.326 15.1939L108.133 15.1115C108.214 15.1115 108.291 15.0793 108.348 15.0221C108.406 14.9648 108.438 14.8872 108.438 14.8063C108.438 14.7253 108.406 14.6477 108.348 14.5904C108.291 14.5332 108.214 14.501 108.133 14.501L101.183 14.5865C100.636 14.5865 100.09 14.6048 99.5437 14.6079C99.2741 14.618 99.0041 14.6006 98.7379 14.556C98.4877 14.501 98.2771 14.3606 98.0359 14.2935C97.5812 14.1683 97.0623 14.4125 96.6319 14.5377L94.8983 15.0321C94.8582 15.0429 94.8207 15.0615 94.7878 15.0869C94.7549 15.1122 94.7273 15.1438 94.7066 15.1798C94.6859 15.2158 94.6725 15.2555 94.6672 15.2967C94.6618 15.3378 94.6647 15.3797 94.6755 15.4197C94.6863 15.4598 94.7049 15.4974 94.7303 15.5303C94.7556 15.5632 94.7872 15.5907 94.8231 15.6114C94.8591 15.6321 94.8989 15.6455 94.94 15.6509C94.9812 15.6562 95.023 15.6534 95.0631 15.6426L95.054 15.6181Z" fill="white"/>
<path opacity="0.3" d="M50.6138 39.8346L35.8748 40.6282C35.077 35.6616 34.684 30.6385 34.6997 25.6084L49.0999 25.062C49.3287 30.0106 49.8341 34.9425 50.6138 39.8346Z" fill="#00B7CC"/>
<path d="M50.9497 39.1597L36.2107 39.9532C35.3669 35.0674 34.857 30.1297 34.6846 25.1746L49.4236 24.3779C49.6563 29.3298 50.1658 34.2647 50.9497 39.1597Z" fill="#00B7CC"/>
<path opacity="0.3" d="M69.1773 45.2518L54.3589 44.3575V29.6704L69.1773 30.5647V45.2518Z" fill="#00B7CC"/>
<path d="M68.9818 44.9223L54.1665 44.028L54.3405 29.2554L69.1558 30.1466L68.9818 44.9223Z" fill="white"/>
<path opacity="0.3" d="M83.3027 42.3739L98.115 41.8886C98.4813 38.4793 96.8697 29.9118 95.9785 26.8657L81.6118 27.7814C82.8418 33.1838 83.3699 38.2687 83.3027 42.3739Z" fill="#00B7CC"/>
<path d="M83.5562 41.8885L97.9015 41.1499C98.2677 37.7437 97.3185 32.1612 96.2472 26.3804L81.5234 27.3143C82.7382 32.7228 83.6233 37.7833 83.5562 41.8885Z" fill="#00B7CC"/>
<path opacity="0.3" d="M42.6809 65.079L57.8015 63.5529C57.7618 60.104 55.9885 52.095 54.9385 49.0947L40.6787 50.7795C42.2048 56.127 42.2597 60.9738 42.6809 65.079Z" fill="#00B7CC"/>
<path d="M43.0384 64.8683L57.6157 63.2842C57.7958 59.8535 56.5444 54.3138 55.1739 48.5879L40.5601 50.3246C41.7352 55.6842 42.8797 60.7722 43.0384 64.8683Z" fill="#00B7CC"/>
<path opacity="0.3" d="M79.4419 48.6276L94.1595 51.3746C95.2644 48.1637 95.5483 39.5413 95.3346 36.4189L80.968 34.1694C80.9832 39.6573 80.3911 44.6812 79.4419 48.6276Z" fill="#00B7CC"/>
<path d="M79.7866 48.2158L94.0861 50.627C95.1941 47.4161 95.4749 41.8215 95.6824 36.0101L80.9495 33.7026C80.9678 39.1905 80.7481 44.2693 79.7866 48.2158Z" fill="white"/>
<path d="M114.432 34.9136C114.737 35.2188 114.969 35.4935 115.222 35.7926C115.476 36.0917 115.72 36.3817 115.958 36.6838C116.44 37.2943 116.898 37.9047 117.334 38.5457C117.771 39.1866 118.186 39.8429 118.555 40.5388C118.95 41.2373 119.296 41.9624 119.59 42.7089L119.703 42.9927L119.73 43.0629L119.767 43.1697L119.834 43.3773C119.868 43.5116 119.898 43.6398 119.926 43.768C119.953 43.8962 119.969 44.0121 119.984 44.1312C120.032 44.5669 120.047 45.0056 120.03 45.4436C119.995 46.2362 119.906 47.0255 119.764 47.806C119.492 49.3084 119.099 50.7863 118.589 52.2256L116.983 51.8532C117.103 50.4187 117.212 48.9536 117.252 47.5435C117.276 46.8597 117.265 46.1751 117.219 45.4925C117.197 45.1925 117.154 44.8945 117.087 44.6012L117.041 44.4211L116.983 44.2899L116.81 43.9389C116.182 42.7211 115.452 41.5591 114.627 40.4655C114.212 39.9008 113.776 39.3484 113.336 38.799C113.116 38.5213 112.891 38.2496 112.665 37.981L111.993 37.2027L114.432 34.9136Z" fill="#B65B52"/>
<path d="M117.179 51.252L116.068 52.4454L118.241 53.7273C118.241 53.7273 118.992 52.7292 118.699 51.7067L117.179 51.252Z" fill="#B55B52"/>
<path d="M114.621 54.2095L116.736 54.9512L118.238 53.7272L116.065 52.4453L114.621 54.2095Z" fill="#B55B52"/>
<path d="M120.714 59.0992L106.744 56.047C107.441 51.3261 108.46 46.6586 109.796 42.0771L123.769 45.1293C122.488 49.7248 121.468 54.3888 120.714 59.0992Z" fill="#00B7CC"/>
<path d="M122.916 45.8016L109.211 41.7212L105.131 55.4262L118.835 59.5066L122.916 45.8016Z" fill="white"/>
<path d="M106.515 25.7572C106.515 25.9343 106.405 26.0625 106.289 26.0625C106.173 26.0625 106.087 25.9129 106.096 25.7359C106.106 25.5589 106.206 25.4307 106.322 25.4307C106.438 25.4307 106.524 25.5802 106.515 25.7572Z" fill="#263238"/>
<path d="M106.42 26.0747C106.184 26.6075 105.876 27.1055 105.504 27.555C105.621 27.6465 105.757 27.7111 105.901 27.7444C106.046 27.7776 106.196 27.7786 106.341 27.7473L106.42 26.0747Z" fill="#A02724"/>
<path d="M107.217 24.8018C107.242 24.7966 107.265 24.7825 107.281 24.7621C107.3 24.7427 107.311 24.7164 107.311 24.6889C107.311 24.6614 107.3 24.6351 107.281 24.6156C107.155 24.5124 107.006 24.4406 106.847 24.4061C106.688 24.3716 106.523 24.3755 106.365 24.4172C106.352 24.4214 106.34 24.4281 106.33 24.437C106.319 24.4458 106.311 24.4567 106.304 24.4689C106.298 24.4811 106.294 24.4944 106.293 24.5081C106.292 24.5217 106.294 24.5355 106.298 24.5485C106.302 24.5616 106.309 24.5737 106.318 24.5841C106.327 24.5946 106.338 24.6032 106.35 24.6094C106.362 24.6157 106.375 24.6194 106.389 24.6205C106.403 24.6216 106.416 24.6199 106.429 24.6156C106.555 24.5824 106.687 24.58 106.814 24.6087C106.941 24.6374 107.06 24.6963 107.159 24.7805C107.176 24.7927 107.196 24.8001 107.217 24.8018Z" fill="#263238"/>
<path d="M111.825 28.2969C111.489 29.9054 111.273 32.1304 112.381 33.2017C112.381 33.2017 111.923 34.8316 108.935 34.8316C105.654 34.8316 107.375 33.4032 107.375 33.4032C108.746 32.9789 108.755 31.4254 108.459 30.177L111.825 28.2969Z" fill="#B55B52"/>
<path d="M104.876 108.771C104.595 108.771 104.323 108.731 104.232 108.606C104.208 108.572 104.195 108.532 104.195 108.491C104.195 108.451 104.208 108.411 104.232 108.377C104.249 108.346 104.273 108.32 104.301 108.299C104.33 108.278 104.362 108.263 104.396 108.255C104.763 108.157 105.526 108.594 105.556 108.612C105.566 108.617 105.574 108.625 105.579 108.635C105.584 108.645 105.586 108.656 105.584 108.667C105.581 108.677 105.576 108.687 105.568 108.694C105.561 108.702 105.551 108.707 105.541 108.71C105.321 108.749 105.099 108.769 104.876 108.771ZM104.534 108.343C104.5 108.34 104.467 108.34 104.433 108.343C104.39 108.353 104.353 108.38 104.329 108.417C104.293 108.481 104.305 108.514 104.329 108.533C104.43 108.673 104.986 108.676 105.395 108.618C105.128 108.471 104.836 108.378 104.534 108.343Z" fill="#00B7CC"/>
<path d="M105.541 108.71H105.52C105.254 108.591 104.735 108.115 104.778 107.867C104.778 107.809 104.833 107.736 104.973 107.721C105.027 107.712 105.083 107.716 105.136 107.731C105.188 107.746 105.237 107.773 105.278 107.809C105.553 108.038 105.605 108.63 105.608 108.655C105.607 108.673 105.6 108.691 105.587 108.704C105.58 108.708 105.572 108.71 105.564 108.711C105.557 108.712 105.549 108.712 105.541 108.71ZM105.016 107.818H104.982C104.891 107.818 104.885 107.864 104.882 107.876C104.854 108.026 105.208 108.398 105.477 108.56C105.454 108.312 105.356 108.077 105.196 107.886C105.146 107.843 105.082 107.819 105.016 107.818Z" fill="#00B7CC"/>
<path d="M108.047 108.658H105.849L105.697 103.573H107.894L108.047 108.658Z" fill="#B55B52"/>
<path d="M105.776 108.404H108.175C108.219 108.404 108.261 108.419 108.295 108.446C108.329 108.473 108.352 108.511 108.361 108.554L108.77 110.504C108.78 110.552 108.78 110.601 108.768 110.649C108.756 110.696 108.734 110.74 108.703 110.778C108.672 110.815 108.633 110.845 108.588 110.866C108.544 110.886 108.495 110.896 108.447 110.895C107.583 110.895 106.335 110.831 105.245 110.831C103.975 110.831 103.173 110.901 101.68 110.901C100.78 110.901 100.542 109.985 100.92 109.906C102.641 109.531 103.749 109.491 105.245 108.575C105.403 108.47 105.587 108.41 105.776 108.404Z" fill="#263238"/>
<path d="M113.263 33.464C115.369 33.4884 118.315 38.8297 118.315 38.8297L115.049 42.1536C113.609 41.3863 112.446 40.1878 111.722 38.726C110.477 36.1865 111.111 33.4426 113.263 33.464Z" fill="#00B7CC"/>
<path opacity="0.3" d="M113.263 33.464C115.369 33.4884 118.315 38.8297 118.315 38.8297L115.049 42.1536C113.609 41.3863 112.446 40.1878 111.722 38.726C110.477 36.1865 111.111 33.4426 113.263 33.464Z" fill="black"/>
<path d="M103.273 35.8996C102.794 38.2712 102.449 43.1455 103.63 52.7935H115.375C115.467 51.2308 114.71 44.4091 115.714 37.0839C115.777 36.6161 115.743 36.1404 115.613 35.6866C115.483 35.2328 115.261 34.8108 114.96 34.447C114.659 34.0832 114.287 33.7856 113.865 33.5728C113.444 33.3601 112.983 33.2367 112.512 33.2107H112.381C110.718 33.116 109.051 33.116 107.388 33.2107C106.838 33.2626 106.295 33.3419 105.813 33.4274C105.19 33.5375 104.615 33.8321 104.163 34.2729C103.71 34.7138 103.4 35.2805 103.273 35.8996Z" fill="#00B7CC"/>
<path opacity="0.2" d="M103.273 35.8996C102.794 38.2712 102.449 43.1455 103.63 52.7935H115.375C115.467 51.2308 114.71 44.4091 115.714 37.0839C115.777 36.6161 115.743 36.1404 115.613 35.6866C115.483 35.2328 115.261 34.8108 114.96 34.447C114.659 34.0832 114.287 33.7856 113.865 33.5728C113.444 33.3601 112.983 33.2367 112.512 33.2107H112.381C110.718 33.116 109.051 33.116 107.388 33.2107C106.838 33.2626 106.295 33.3419 105.813 33.4274C105.19 33.5375 104.615 33.8321 104.163 34.2729C103.71 34.7138 103.4 35.2805 103.273 35.8996Z" fill="black"/>
<path opacity="0.2" d="M105.974 40.7863L104.393 39.7119C102.867 40.2094 102.788 41.6928 102.867 43.8354C104.18 43.5058 105.691 42.2605 105.974 40.7863Z" fill="black"/>
<path opacity="0.2" d="M105.697 103.573L105.776 106.195H107.974L107.894 103.573H105.697Z" fill="black"/>
<path d="M112.436 25.623C112.186 27.7901 112.149 29.072 110.992 30.1433C109.253 31.7518 106.625 30.65 106.222 28.4585C105.859 26.4868 106.329 23.2698 108.502 22.4915C108.976 22.3153 109.488 22.2646 109.987 22.3443C110.487 22.424 110.957 22.6315 111.353 22.9465C111.749 23.2616 112.057 23.6735 112.246 24.1424C112.436 24.6114 112.501 25.1214 112.436 25.623Z" fill="#B55B52"/>
<path d="M107.809 26.551C107.134 26.7036 106.829 25.1134 107.504 24.5029C106.893 24.1977 106.011 23.7551 105.718 23.0898C105.379 22.3267 106.295 21.4111 107.085 21.4507C106.829 20.941 107.391 19.5798 109.002 20.0925C110.614 20.6053 111.371 21.3989 111.371 21.3989C111.371 21.3989 111.902 19.6347 113.022 21.0601C114.014 22.3237 113.632 23.4072 113.632 23.4072C113.632 23.4072 115.11 24.8082 114.728 25.8489C114.515 26.4578 114.079 26.963 113.507 27.2621C113.507 27.2621 113.73 29.7039 111.935 30.3143C110.141 30.9247 109.008 29.7039 109.161 28.9896C108.001 29.0293 106.817 27.5032 107.809 26.551Z" fill="#263238"/>
<path d="M108.59 26.389C108.509 26.9263 108.256 27.4231 107.87 27.8052C107.354 28.3027 106.878 27.9456 106.838 27.3016C106.802 26.7217 107.027 25.7755 107.632 25.5069C108.236 25.2383 108.673 25.7419 108.59 26.389Z" fill="#B55B52"/>
<path d="M126.69 105.886L124.736 106.588L122.795 101.561L124.748 100.862L126.69 105.886Z" fill="#B55B52"/>
<path d="M123.869 106.906C123.65 107.08 123.412 107.211 123.259 107.174C123.221 107.161 123.187 107.136 123.163 107.104C123.139 107.071 123.126 107.032 123.125 106.991C123.12 106.956 123.123 106.92 123.132 106.886C123.142 106.852 123.158 106.82 123.18 106.793C123.409 106.487 124.275 106.359 124.312 106.356C124.323 106.354 124.333 106.356 124.343 106.36C124.353 106.365 124.361 106.372 124.367 106.381C124.372 106.39 124.375 106.4 124.375 106.411C124.375 106.422 124.372 106.432 124.367 106.442C124.214 106.61 124.048 106.765 123.869 106.906ZM123.338 106.783C123.31 106.803 123.285 106.828 123.265 106.857C123.239 106.891 123.227 106.933 123.232 106.976C123.232 107.049 123.271 107.067 123.293 107.073C123.457 107.122 123.903 106.783 124.184 106.484C123.885 106.528 123.598 106.629 123.338 106.783Z" fill="#00B7CC"/>
<path d="M124.355 106.448C124.349 106.45 124.342 106.45 124.336 106.448C124.056 106.518 123.354 106.466 123.235 106.244C123.207 106.192 123.195 106.109 123.299 106.009C123.336 105.973 123.38 105.944 123.428 105.926C123.476 105.908 123.528 105.899 123.579 105.902C123.937 105.902 124.342 106.344 124.361 106.363C124.365 106.37 124.367 106.378 124.367 106.387C124.367 106.396 124.365 106.404 124.361 106.411C124.362 106.418 124.363 106.424 124.362 106.43C124.361 106.437 124.358 106.443 124.355 106.448ZM123.393 106.073C123.384 106.078 123.375 106.085 123.369 106.094C123.302 106.158 123.32 106.192 123.326 106.204C123.396 106.335 123.903 106.411 124.214 106.375C124.045 106.19 123.822 106.064 123.576 106.015C123.51 106.011 123.445 106.031 123.393 106.073Z" fill="#00B7CC"/>
<path d="M124.364 106.051L126.25 104.568C126.285 104.541 126.328 104.526 126.372 104.526C126.416 104.526 126.459 104.541 126.494 104.568L128.115 105.788C128.153 105.817 128.185 105.854 128.206 105.897C128.228 105.939 128.239 105.986 128.239 106.034C128.239 106.082 128.228 106.129 128.206 106.172C128.185 106.214 128.153 106.251 128.115 106.28C127.425 106.802 126.094 107.876 125.282 108.596C124.333 109.442 125.072 108.877 123.958 109.869C123.283 110.48 122.459 109.979 122.685 109.671C123.704 108.261 123.921 107.421 124.056 106.521C124.093 106.33 124.204 106.161 124.364 106.051Z" fill="#263238"/>
<path d="M92.2824 41.351L91.4248 39.5044L89.0898 40.9481C89.0898 40.9481 89.859 42.52 91.4522 42.349L92.2824 41.351Z" fill="#B55B52"/>
<path d="M89.2302 39.0038L88.7083 39.4525C88.6284 39.5212 88.5638 39.6059 88.5188 39.7012C88.4737 39.7965 88.4493 39.9002 88.447 40.0056C88.4447 40.111 88.4646 40.2157 88.5054 40.3128C88.5462 40.41 88.607 40.4975 88.6839 40.5696L89.0898 40.9481L91.4248 39.5044L90.0238 38.894C89.8946 38.8358 89.7516 38.8153 89.6112 38.8348C89.4709 38.8542 89.3388 38.9128 89.2302 39.0038Z" fill="#B55B52"/>
<path opacity="0.2" d="M122.795 101.561L123.796 104.153L125.749 103.454L124.748 100.862L122.795 101.561Z" fill="black"/>
<path d="M107.796 52.7935C107.796 52.7935 111.459 69.6629 112.863 75.926C114.389 82.7812 122.474 103.631 122.474 103.631L126.021 101.708C126.021 101.708 122.227 85.3511 119.456 76.4296C118.449 69.0555 115.375 52.7935 115.375 52.7935H107.796Z" fill="#263238"/>
<path d="M121.476 102.587C121.458 102.587 122.203 103.963 122.203 103.963L126.592 102.315L126.244 100.975L121.476 102.587Z" fill="#00B7CC"/>
<path opacity="0.3" d="M109.964 60.6131C112.729 60.9824 113.04 70.722 112.988 76.4387C112.952 76.2586 112.909 76.0877 112.875 75.9259C112.109 72.5044 110.672 65.9178 109.518 60.6436C109.662 60.6003 109.815 60.5899 109.964 60.6131Z" fill="black"/>
<path d="M103.63 52.7935C103.63 52.7935 102.696 69.2142 102.849 75.9107C103.008 82.8789 104.964 105.688 104.964 105.688H108.685C108.685 105.688 109.295 83.2848 109.545 76.4449C109.823 68.9853 111.352 52.7935 111.352 52.7935H103.63Z" fill="#263238"/>
<path d="M104.268 104.205C104.25 104.205 104.457 105.749 104.457 105.749H108.984L109.124 104.372L104.268 104.205Z" fill="#00B7CC"/>
<path d="M106.796 37.035C106.288 37.9386 105.722 38.8083 105.102 39.6385C104.486 40.4577 103.825 41.2414 103.121 41.9857C102.425 42.7273 101.689 43.4294 100.936 44.0947C100.182 44.7601 99.3942 45.395 98.6861 45.9779L98.4358 46.1855L98.2282 46.2587C97.723 46.439 97.1826 46.4985 96.6503 46.4327C96.2133 46.3844 95.7845 46.2797 95.3744 46.1214C94.6871 45.8308 94.0415 45.45 93.4546 44.989C92.9124 44.5677 92.4023 44.1066 91.9285 43.6094C91.6966 43.3683 91.4768 43.115 91.2601 42.8616C91.0434 42.6083 90.8419 42.3519 90.6313 42.062L91.837 40.9357C92.3039 41.2837 92.8076 41.6621 93.3112 41.9857C93.797 42.3177 94.3003 42.6234 94.8189 42.9013C95.2792 43.1554 95.7679 43.3541 96.2748 43.4934C96.4628 43.5444 96.657 43.568 96.8517 43.5636C96.9539 43.5647 97.0543 43.5372 97.1417 43.4843L96.6869 43.7651C97.4316 43.0692 98.1062 42.4465 98.7776 41.7903C99.4491 41.1341 100.081 40.4687 100.688 39.782C101.296 39.0952 101.876 38.3871 102.41 37.6455C102.944 36.9038 103.438 36.159 103.905 35.396L106.796 37.035Z" fill="#B65B52"/>
<path d="M108.358 36.5744C108.148 39.7334 104.525 42.3736 104.525 42.3736L99.8242 39.7945C99.8242 39.7945 101.555 36.0739 103.887 34.3158C106.771 32.1579 108.517 34.1693 108.358 36.5744Z" fill="#00B7CC"/>
<path opacity="0.2" d="M108.358 36.5744C108.148 39.7334 104.525 42.3736 104.525 42.3736L99.8242 39.7945C99.8242 39.7945 101.555 36.0739 103.887 34.3158C106.771 32.1579 108.517 34.1693 108.358 36.5744Z" fill="black"/>
</svg>
