<svg width="162" height="120" viewBox="0 0 162 120" fill="none" xmlns="http://www.w3.org/2000/svg">
<path d="M161.524 105.454H0.476562V105.535H161.524V105.454Z" fill="#EBEBEB"/>
<path d="M145.388 110.637H134.72V110.717H145.388V110.637Z" fill="#EBEBEB"/>
<path d="M107.161 111.513H104.362V111.593H107.161V111.513Z" fill="#EBEBEB"/>
<path d="M134.398 107.648H128.217V107.728H134.398V107.648Z" fill="#EBEBEB"/>
<path d="M31.2853 108.189H17.374V108.269H31.2853V108.189Z" fill="#EBEBEB"/>
<path d="M36.1941 108.189H34.1553V108.269H36.1941V108.189Z" fill="#EBEBEB"/>
<path d="M72.9962 109.548H42.8223V109.629H72.9962V109.548Z" fill="#EBEBEB"/>
<path opacity="0.5" d="M76.8126 91.0886H14.6191C14.1319 91.0878 13.665 90.8937 13.3207 90.5488C12.9765 90.204 12.7832 89.7367 12.7832 89.2495V1.82306C12.7874 1.33864 12.9826 0.875449 13.3264 0.534105C13.6702 0.192761 14.1347 0.000829843 14.6191 0H76.8126C77.3004 0 77.7682 0.193769 78.1131 0.538679C78.458 0.88359 78.6518 1.35139 78.6518 1.83917V89.2495C78.6518 89.7373 78.458 90.2051 78.1131 90.55C77.7682 90.8949 77.3004 91.0886 76.8126 91.0886ZM14.6191 0.0644194C14.1533 0.0652726 13.7068 0.250933 13.3777 0.58065C13.0486 0.910367 12.8637 1.3572 12.8637 1.82306V89.2495C12.8637 89.7153 13.0486 90.1622 13.3777 90.4919C13.7068 90.8216 14.1533 91.0073 14.6191 91.0081H76.8126C77.2788 91.0073 77.7256 90.8217 78.0552 90.4921C78.3848 90.1625 78.5704 89.7156 78.5713 89.2495V1.82306C78.5704 1.3569 78.3848 0.910079 78.0552 0.580454C77.7256 0.250829 77.2788 0.0652708 76.8126 0.0644194H14.6191Z" fill="#EBEBEB"/>
<path opacity="0.5" d="M146.485 91.0886H84.2884C83.8009 91.0878 83.3336 90.8938 82.9888 90.549C82.6441 90.2043 82.4501 89.737 82.4492 89.2495V1.82306C82.4543 1.33834 82.6502 0.875159 82.9945 0.533903C83.3388 0.192648 83.8036 0.000820793 84.2884 0H146.485C146.969 0.00167635 147.433 0.193982 147.776 0.535235C148.119 0.876489 148.314 1.33919 148.318 1.82306V89.2495C148.318 89.7362 148.125 90.203 147.781 90.5477C147.438 90.8924 146.972 91.0869 146.485 91.0886ZM84.2884 0.0644194C83.8222 0.0652708 83.3754 0.250829 83.0458 0.580454C82.7162 0.910079 82.5306 1.3569 82.5297 1.82306V89.2495C82.5306 89.7156 82.7162 90.1625 83.0458 90.4921C83.3754 90.8217 83.8222 91.0073 84.2884 91.0081H146.485C146.951 91.0073 147.398 90.8217 147.728 90.4921C148.057 90.1625 148.243 89.7156 148.244 89.2495V1.82306C148.243 1.3569 148.057 0.910079 147.728 0.580454C147.398 0.250829 146.951 0.0652708 146.485 0.0644194H84.2884Z" fill="#EBEBEB"/>
<path opacity="0.5" d="M53.4591 3.46265H30.5098V81.3164H53.4591V3.46265Z" fill="#FAFAFA"/>
<path opacity="0.5" d="M50.0403 3.46265H48.7004L40.6963 81.3164H42.0362L50.0403 3.46265Z" fill="#F5F5F5"/>
<path opacity="0.5" d="M53.052 3.76196H30.3604V4.44803H53.052V3.76196Z" fill="#E0E0E0"/>
<path d="M53.052 80.6335H30.3604V82.1023H53.052V80.6335Z" fill="#EBEBEB"/>
<path d="M52.6753 82.0376H31.2334V82.102H52.6753V82.0376Z" fill="#EBEBEB"/>
<path opacity="0.5" d="M31.2344 3.76214H52.6763V82.0378H53.9615V2.79907H29.9492V82.0378H31.2344V3.76214Z" fill="#EBEBEB"/>
<path opacity="0.5" d="M78.9972 3.46265H56.0479V81.3164H78.9972V3.46265Z" fill="#FAFAFA"/>
<path opacity="0.5" d="M72.6294 3.46265H65.3146L57.3105 81.3164H64.6253L72.6294 3.46265Z" fill="#F5F5F5"/>
<path opacity="0.5" d="M79.2352 3.76196H55.8994V4.44803H79.2352V3.76196Z" fill="#E0E0E0"/>
<path d="M79.2352 80.6335H55.8994V82.1023H79.2352V80.6335Z" fill="#EBEBEB"/>
<path d="M78.2144 82.0376H56.7725V82.102H78.2144V82.0376Z" fill="#EBEBEB"/>
<path opacity="0.5" d="M56.7734 3.76214H78.2154V82.0378H79.4973V2.79907H55.4883V82.0378H56.7734V3.76214Z" fill="#EBEBEB"/>
<path opacity="0.5" d="M103.889 3.46265H81.584V81.3164H103.889V3.46265Z" fill="#FAFAFA"/>
<path opacity="0.5" d="M94.2229 3.46265H92.883L84.8789 81.3164H86.2188L94.2229 3.46265Z" fill="#F5F5F5"/>
<path opacity="0.5" d="M104.131 3.76196H81.4395V4.44803H104.131V3.76196Z" fill="#E0E0E0"/>
<path d="M104.131 80.6335H81.4395V82.1023H104.131V80.6335Z" fill="#EBEBEB"/>
<path d="M103.752 82.0376H82.3105V82.102H103.752V82.0376Z" fill="#EBEBEB"/>
<path opacity="0.5" d="M82.3115 3.76214H103.75V82.0378H105.035V2.79907H81.0264V82.0378H82.3115V3.76214Z" fill="#EBEBEB"/>
<path opacity="0.5" d="M130.072 3.46265H107.123V81.3164H130.072V3.46265Z" fill="#FAFAFA"/>
<path opacity="0.5" d="M127.826 3.46265H120.511L112.504 81.3164H119.822L127.826 3.46265Z" fill="#F5F5F5"/>
<path opacity="0.5" d="M129.666 3.76196H106.975V4.44803H129.666V3.76196Z" fill="#E0E0E0"/>
<path d="M129.666 80.6335H106.975V82.1023H129.666V80.6335Z" fill="#EBEBEB"/>
<path opacity="0.5" d="M107.847 3.76214H129.289V82.0378H130.574V2.79907H106.565V82.0378H107.847V3.76214Z" fill="#EBEBEB"/>
<path d="M129.29 82.0376H107.848V82.102H129.29V82.0376Z" fill="#EBEBEB"/>
<path d="M47.9673 63.4077H38.0049V80.6366H47.9673V63.4077Z" fill="#EBEBEB"/>
<path d="M46.0529 60.9985V65.3211H45.2702H40.7029H39.917V60.9985H46.0529Z" fill="#EBEBEB"/>
<path d="M46.0526 65.3213H47.3281V64.0458H46.0526V65.3213Z" fill="#FAFAFA"/>
<path d="M43.5858 65.3213H44.8613V64.0458H43.5858V65.3213Z" fill="#FAFAFA"/>
<path d="M41.1151 65.3213H42.3906V64.0458H41.1151V65.3213Z" fill="#FAFAFA"/>
<path d="M38.6454 65.3213H39.9209V64.0458H38.6454V65.3213Z" fill="#F0F0F0"/>
<path d="M46.0526 67.6367H47.3281V66.3612H46.0526V67.6367Z" fill="#F0F0F0"/>
<path d="M43.5858 67.6367H44.8613V66.3612H43.5858V67.6367Z" fill="#F0F0F0"/>
<path d="M41.1151 67.6367H42.3906V66.3612H41.1151V67.6367Z" fill="#FAFAFA"/>
<path d="M38.6454 67.6367H39.9209V66.3612H38.6454V67.6367Z" fill="#FAFAFA"/>
<path d="M46.0526 69.9561H47.3281V68.6806H46.0526V69.9561Z" fill="#F0F0F0"/>
<path d="M43.5858 69.9561H44.8613V68.6806H43.5858V69.9561Z" fill="#FAFAFA"/>
<path d="M41.1151 69.9561H42.3906V68.6806H41.1151V69.9561Z" fill="#FAFAFA"/>
<path d="M43.5858 63.3176H44.8613V62.0421H43.5858V63.3176Z" fill="#FAFAFA"/>
<path d="M41.1151 63.3176H42.3906V62.0421H41.1151V63.3176Z" fill="#F0F0F0"/>
<path d="M38.6454 69.9561H39.9209V68.6806H38.6454V69.9561Z" fill="#F0F0F0"/>
<path d="M46.0526 72.2751H47.3281V70.9996H46.0526V72.2751Z" fill="#FAFAFA"/>
<path d="M43.5858 72.2751H44.8613V70.9996H43.5858V72.2751Z" fill="#F0F0F0"/>
<path d="M41.1151 72.2751H42.3906V70.9996H41.1151V72.2751Z" fill="#F0F0F0"/>
<path d="M38.6454 72.2751H39.9209V70.9996H38.6454V72.2751Z" fill="#FAFAFA"/>
<path d="M46.0526 74.5942H47.3281V73.3187H46.0526V74.5942Z" fill="#F0F0F0"/>
<path d="M43.5858 74.5942H44.8613V73.3187H43.5858V74.5942Z" fill="#FAFAFA"/>
<path d="M41.1151 74.5942H42.3906V73.3187H41.1151V74.5942Z" fill="#FAFAFA"/>
<path d="M38.6454 74.5942H39.9209V73.3187H38.6454V74.5942Z" fill="#F0F0F0"/>
<path d="M46.0526 76.9099H47.3281V75.6344H46.0526V76.9099Z" fill="#F0F0F0"/>
<path d="M43.5858 76.9099H44.8613V75.6344H43.5858V76.9099Z" fill="#FAFAFA"/>
<path d="M41.1151 76.9099H42.3906V75.6344H41.1151V76.9099Z" fill="#F0F0F0"/>
<path d="M38.6454 76.9099H39.9209V75.6344H38.6454V76.9099Z" fill="#FAFAFA"/>
<path d="M46.0526 79.229H47.3281V77.9535H46.0526V79.229Z" fill="#FAFAFA"/>
<path d="M43.5858 79.229H44.8613V77.9535H43.5858V79.229Z" fill="#FAFAFA"/>
<path d="M41.1151 79.229H42.3906V77.9535H41.1151V79.229Z" fill="#F0F0F0"/>
<path d="M38.6454 79.229H39.9209V77.9535H38.6454V79.229Z" fill="#F0F0F0"/>
<path d="M118.152 69.6821H109.227V80.6334H118.152V69.6821Z" fill="#F0F0F0"/>
<path d="M110.002 70.8997H112.076H112.65H113.22V72.0399H112.65H112.076H110.002V70.8997Z" fill="#E6E6E6"/>
<path d="M110.002 73.1123H112.076H112.65H113.22V74.2558H112.65H112.076H110.002V73.1123Z" fill="#FAFAFA"/>
<path d="M110.002 75.3252H112.076H112.65H113.22V76.4686H112.65H112.076H110.002V75.3252Z" fill="#E6E6E6"/>
<path d="M110.002 77.5381H112.076H112.959H113.22V78.6815H112.959H112.076H110.002V77.5381Z" fill="#FAFAFA"/>
<path d="M114.153 70.8997H116.231H116.801H117.371V72.0399H116.801H116.231H114.153V70.8997Z" fill="#FAFAFA"/>
<path d="M114.153 73.1123H116.231H117.036H117.371V74.2558H117.036H116.231H114.153V73.1123Z" fill="#FAFAFA"/>
<path d="M114.153 75.3252H116.231H116.801H117.371V76.4686H116.801H116.231H114.153V75.3252Z" fill="#E6E6E6"/>
<path d="M114.153 77.5381H116.231H116.801H117.371V78.6815H116.801H116.231H114.153V77.5381Z" fill="#FAFAFA"/>
<path d="M75.1416 73.8308H67.0312V80.6367H75.1416V73.8308Z" fill="#F0F0F0"/>
<path d="M73.5859 75.7183H74.623V74.6811H73.5859V75.7183Z" fill="#FAFAFA"/>
<path d="M71.5752 75.7183H72.6123V74.6811H71.5752V75.7183Z" fill="#FAFAFA"/>
<path d="M69.5625 75.7183H70.5996V74.6811H69.5625V75.7183Z" fill="#FAFAFA"/>
<path d="M67.5527 75.7183H68.5898V74.6811H67.5527V75.7183Z" fill="#FAFAFA"/>
<path d="M73.5859 77.6025H74.623V76.5654H73.5859V77.6025Z" fill="#FAFAFA"/>
<path d="M71.5752 77.6025H72.6123V76.5654H71.5752V77.6025Z" fill="#FAFAFA"/>
<path d="M69.5625 77.6025H70.5996V76.5654H69.5625V77.6025Z" fill="#FAFAFA"/>
<path d="M67.5527 77.6025H68.5898V76.5654H67.5527V77.6025Z" fill="#E6E6E6"/>
<path d="M73.5859 79.49H74.623V78.4528H73.5859V79.49Z" fill="#E6E6E6"/>
<path d="M71.5752 79.49H72.6123V78.4528H71.5752V79.49Z" fill="#E6E6E6"/>
<path d="M69.5625 79.49H70.5996V78.4528H69.5625V79.49Z" fill="#FAFAFA"/>
<path d="M67.5527 79.49H68.5898V78.4528H67.5527V79.49Z" fill="#E6E6E6"/>
<path d="M65.9326 68.7996H57.8223V80.6366H65.9326V68.7996Z" fill="#F0F0F0"/>
<path d="M65.4135 69.3181H62.3633V72.2427H65.4135V69.3181Z" fill="#FAFAFA"/>
<path d="M61.392 69.3181H58.3418V72.2427H61.392V69.3181Z" fill="#FAFAFA"/>
<path d="M65.4135 73.0898H62.3633V76.0145H65.4135V73.0898Z" fill="#FAFAFA"/>
<path d="M61.392 73.0898H58.3418V76.0145H61.392V73.0898Z" fill="#FAFAFA"/>
<path d="M65.4135 76.8618H62.3633V79.7864H65.4135V76.8618Z" fill="#FAFAFA"/>
<path d="M61.392 76.8618H58.3418V79.7864H61.392V76.8618Z" fill="#FAFAFA"/>
<path d="M80.999 120C115.49 120 143.45 118.368 143.45 116.354C143.45 114.34 115.49 112.708 80.999 112.708C46.5082 112.708 18.5479 114.34 18.5479 116.354C18.5479 118.368 46.5082 120 80.999 120Z" fill="#F5F5F5"/>
<g style="mix-blend-mode:luminosity">
<path d="M109.97 21.0632V92.0016L101.434 100.537H52.0215V21.0632H109.97Z" fill="#D2D6DA"/>
<path opacity="0.8" d="M109.47 21.5632V91.7945L101.227 100.037H52.5215V21.5632H109.47Z" fill="white" stroke="#EBEDEF"/>
<path opacity="0.2" d="M101.435 100.537V92.2529H109.97L101.602 100.621" fill="#6E7A87"/>
<path opacity="0.1" d="M73.9496 27.9531H57.9672C57.7426 27.9531 57.5271 27.8638 57.3682 27.7049C57.2094 27.5461 57.1201 27.3306 57.1201 27.1059C57.1197 26.9944 57.1413 26.8839 57.1837 26.7808C57.2261 26.6776 57.2884 26.5839 57.3671 26.5049C57.4458 26.4259 57.5393 26.3632 57.6423 26.3204C57.7453 26.2776 57.8557 26.2556 57.9672 26.2556H73.9496C74.1746 26.2565 74.3901 26.3464 74.5488 26.5058C74.7076 26.6652 74.7967 26.881 74.7967 27.1059C74.7967 27.3306 74.7075 27.5461 74.5486 27.7049C74.3898 27.8638 74.1743 27.9531 73.9496 27.9531Z" fill="#6E7A87"/>
<path opacity="0.1" d="M102.939 34.8263H64.4096C64.2981 34.8263 64.1877 34.8043 64.0847 34.7616C63.9817 34.7188 63.8882 34.6561 63.8095 34.5771C63.7308 34.4981 63.6684 34.4043 63.6261 34.3012C63.5837 34.198 63.5621 34.0875 63.5625 33.976C63.5625 33.7513 63.6518 33.5359 63.8106 33.377C63.9695 33.2182 64.185 33.1289 64.4096 33.1289H102.939C103.163 33.1289 103.379 33.2182 103.538 33.377C103.697 33.5359 103.786 33.7513 103.786 33.976C103.786 34.201 103.697 34.4168 103.538 34.5762C103.379 34.7355 103.164 34.8255 102.939 34.8263Z" fill="#6E7A87"/>
<path opacity="0.1" d="M102.938 38.1664H57.9672C57.7426 38.1664 57.5271 38.0772 57.3682 37.9183C57.2094 37.7595 57.1201 37.544 57.1201 37.3193C57.1197 37.2078 57.1413 37.0973 57.1837 36.9942C57.2261 36.891 57.2884 36.7972 57.3671 36.7182C57.4458 36.6392 57.5393 36.5766 57.6423 36.5338C57.7453 36.491 57.8557 36.469 57.9672 36.469H102.938C103.163 36.4698 103.379 36.5598 103.537 36.7192C103.696 36.8786 103.785 37.0944 103.785 37.3193C103.785 37.544 103.696 37.7595 103.537 37.9183C103.378 38.0772 103.163 38.1664 102.938 38.1664Z" fill="#6E7A87"/>
<path opacity="0.1" d="M102.938 41.9413H57.9672C57.8557 41.9413 57.7453 41.9193 57.6423 41.8766C57.5393 41.8338 57.4458 41.7711 57.3671 41.6921C57.2884 41.6131 57.2261 41.5193 57.1837 41.4162C57.1413 41.313 57.1197 41.2025 57.1201 41.091C57.1201 40.8663 57.2094 40.6509 57.3682 40.492C57.5271 40.3331 57.7426 40.2439 57.9672 40.2439H102.938C103.163 40.2439 103.378 40.3331 103.537 40.492C103.696 40.6509 103.785 40.8663 103.785 41.091C103.785 41.316 103.696 41.5318 103.537 41.6911C103.379 41.8505 103.163 41.9405 102.938 41.9413Z" fill="#6E7A87"/>
<path opacity="0.1" d="M102.938 45.7133H57.9672C57.7426 45.7133 57.5271 45.624 57.3682 45.4652C57.2094 45.3063 57.1201 45.0908 57.1201 44.8662C57.1201 44.6415 57.2094 44.426 57.3682 44.2672C57.5271 44.1083 57.7426 44.019 57.9672 44.019H102.938C103.163 44.019 103.378 44.1083 103.537 44.2672C103.696 44.426 103.785 44.6415 103.785 44.8662C103.785 45.0908 103.696 45.3063 103.537 45.4652C103.378 45.624 103.163 45.7133 102.938 45.7133Z" fill="#6E7A87"/>
<path opacity="0.1" d="M102.938 49.4882H57.9672C57.7426 49.4882 57.5271 49.3989 57.3682 49.2401C57.2094 49.0812 57.1201 48.8657 57.1201 48.6411C57.1197 48.5297 57.1413 48.4194 57.1837 48.3164C57.2262 48.2134 57.2885 48.1199 57.3673 48.0411C57.446 47.9624 57.5396 47.9 57.6426 47.8576C57.7455 47.8151 57.8559 47.7935 57.9672 47.794H102.938C103.163 47.794 103.378 47.8832 103.537 48.0421C103.696 48.2009 103.785 48.4164 103.785 48.6411C103.785 48.8657 103.696 49.0812 103.537 49.2401C103.378 49.3989 103.163 49.4882 102.938 49.4882Z" fill="#6E7A87"/>
<path opacity="0.1" d="M102.938 53.2631H57.9672C57.7426 53.2631 57.5271 53.1739 57.3682 53.015C57.2094 52.8561 57.1201 52.6407 57.1201 52.416C57.1197 52.3045 57.1413 52.194 57.1837 52.0908C57.2261 51.9877 57.2884 51.8939 57.3671 51.8149C57.4458 51.7359 57.5393 51.6732 57.6423 51.6305C57.7453 51.5877 57.8557 51.5657 57.9672 51.5657H102.938C103.163 51.5665 103.379 51.6565 103.537 51.8159C103.696 51.9752 103.785 52.191 103.785 52.416C103.785 52.6407 103.696 52.8561 103.537 53.015C103.378 53.1739 103.163 53.2631 102.938 53.2631Z" fill="#6E7A87"/>
<path opacity="0.1" d="M102.941 55.3406H57.9672C57.4994 55.3406 57.1201 55.7198 57.1201 56.1877V56.1909C57.1201 56.6588 57.4994 57.038 57.9672 57.038H102.941C103.409 57.038 103.789 56.6588 103.789 56.1909V56.1877C103.789 55.7198 103.409 55.3406 102.941 55.3406Z" fill="#6E7A87"/>
<path opacity="0.1" d="M102.938 60.8065H57.9672C57.7426 60.8065 57.5271 60.7173 57.3682 60.5584C57.2094 60.3995 57.1201 60.1841 57.1201 59.9594C57.1201 59.7347 57.2094 59.5193 57.3682 59.3604C57.5271 59.2016 57.7426 59.1123 57.9672 59.1123H102.938C103.163 59.1123 103.378 59.2016 103.537 59.3604C103.696 59.5193 103.785 59.7347 103.785 59.9594C103.785 60.1841 103.696 60.3995 103.537 60.5584C103.378 60.7173 103.163 60.8065 102.938 60.8065Z" fill="#6E7A87"/>
<path opacity="0.1" d="M102.938 64.5849H57.9672C57.7426 64.5849 57.5271 64.4956 57.3682 64.3367C57.2094 64.1779 57.1201 63.9624 57.1201 63.7377C57.1197 63.6264 57.1413 63.516 57.1837 63.4131C57.2262 63.3101 57.2885 63.2165 57.3673 63.1378C57.446 63.059 57.5396 62.9967 57.6426 62.9542C57.7455 62.9118 57.8559 62.8902 57.9672 62.8906H102.938C103.163 62.8906 103.378 62.9799 103.537 63.1387C103.696 63.2976 103.785 63.5131 103.785 63.7377C103.785 63.9624 103.696 64.1779 103.537 64.3367C103.378 64.4956 103.163 64.5849 102.938 64.5849Z" fill="#6E7A87"/>
<path opacity="0.1" d="M102.938 68.3598H57.9672C57.7426 68.3598 57.5271 68.2706 57.3682 68.1117C57.2094 67.9528 57.1201 67.7374 57.1201 67.5127C57.1197 67.4012 57.1413 67.2907 57.1837 67.1875C57.2261 67.0844 57.2884 66.9906 57.3671 66.9116C57.4458 66.8326 57.5393 66.7699 57.6423 66.7271C57.7453 66.6844 57.8557 66.6624 57.9672 66.6624H102.938C103.163 66.6632 103.379 66.7532 103.537 66.9126C103.696 67.0719 103.785 67.2877 103.785 67.5127C103.785 67.7374 103.696 67.9528 103.537 68.1117C103.378 68.2706 103.163 68.3598 102.938 68.3598Z" fill="#6E7A87"/>
<path opacity="0.1" d="M102.938 72.1347H57.9672C57.8557 72.1347 57.7453 72.1127 57.6423 72.0699C57.5393 72.0271 57.4458 71.9645 57.3671 71.8855C57.2884 71.8064 57.2261 71.7127 57.1837 71.6095C57.1413 71.5064 57.1197 71.3959 57.1201 71.2844C57.1201 71.0597 57.2094 70.8442 57.3682 70.6854C57.5271 70.5265 57.7426 70.4373 57.9672 70.4373H102.938C103.163 70.4373 103.378 70.5265 103.537 70.6854C103.696 70.8442 103.785 71.0597 103.785 71.2844C103.785 71.5093 103.696 71.7251 103.537 71.8845C103.379 72.0439 103.163 72.1338 102.938 72.1347Z" fill="#6E7A87"/>
<path opacity="0.1" d="M77.1706 75.9064H57.9672C57.7426 75.9064 57.5271 75.8171 57.3682 75.6583C57.2094 75.4994 57.1201 75.2839 57.1201 75.0593C57.1201 74.8346 57.2094 74.6191 57.3682 74.4603C57.5271 74.3014 57.7426 74.2122 57.9672 74.2122H77.1706C77.3952 74.2122 77.6107 74.3014 77.7696 74.4603C77.9284 74.6191 78.0177 74.8346 78.0177 75.0593C78.0177 75.2839 77.9284 75.4994 77.7696 75.6583C77.6107 75.8171 77.3952 75.9064 77.1706 75.9064Z" fill="#6E7A87"/>
<path d="M99.4785 38.4468L99.4173 38.3953C99.2434 38.2632 99.1435 38.3083 99.063 38.0539C99.005 37.8703 99.063 37.6641 98.9953 37.4741C98.8419 37.147 98.6665 36.8306 98.4703 36.5271L97.678 35.1003C97.5011 34.7843 97.2062 34.5513 96.8578 34.4523C96.5095 34.3533 96.1361 34.3963 95.8195 34.572L88.524 38.6369C88.495 38.8817 88.2921 39.0491 88.2502 39.2811C88.2358 39.3496 88.2395 39.4207 88.261 39.4873C88.2825 39.554 88.3209 39.6139 88.3726 39.6611C88.2907 39.6595 88.2116 39.6312 88.1472 39.5806C87.7123 39.339 87.5964 39.1458 87.1487 39.3906C86.9554 39.4936 86.7654 39.6031 86.5753 39.7127L84.6428 40.7917L78.5874 44.164L71.5013 48.1194L65.5972 51.408C64.792 51.8557 63.8161 52.2486 63.0978 52.8187C63.2975 52.9218 63.3329 53.0796 63.1558 53.2342L62.8337 53.5273C62.8337 53.6079 62.9496 53.6079 63.0237 53.5757L63.4231 53.4049C63.1456 53.7573 62.8114 54.061 62.4343 54.3036C61.8009 54.6713 61.1204 54.9509 60.4115 55.1346L60.7529 54.7062C60.7787 54.6708 60.8109 54.6257 60.7884 54.5838C60.7658 54.5419 60.7239 54.5387 60.6853 54.5355C60.5146 54.5162 60.3439 54.5355 60.2182 54.4099C59.1167 55.0541 57.9636 55.6661 56.8427 56.2909C56.5267 56.4678 56.2937 56.7628 56.1947 57.1111C56.0957 57.4594 56.1388 57.8328 56.3145 58.1494L63.6711 71.3553C63.7581 71.512 63.8751 71.6499 64.0155 71.7613C64.1559 71.8727 64.3168 71.9552 64.4892 72.0043C64.6615 72.0534 64.8418 72.068 65.0198 72.0473C65.1978 72.0265 65.3699 71.9709 65.5264 71.8836L67.4622 70.7917C67.4622 70.563 67.6426 70.3085 67.5073 70.0992C67.4881 70.0737 67.4759 70.0438 67.4718 70.0122C67.4718 69.9703 67.5105 69.9381 67.5459 69.9156C67.7443 69.7896 67.9716 69.7164 68.2062 69.703C68.2867 69.703 68.393 69.7384 68.3802 69.8157C68.3802 69.7449 68.7957 69.5967 68.8633 69.5742C68.8955 69.7481 68.7763 69.9349 68.9793 69.9703C69.1822 70.0058 69.4914 69.6482 69.6234 69.5838L71.556 68.5048L77.6758 65.1002L84.3883 61.3607L88.8493 58.8741C89.0104 58.7807 89.2004 58.6712 89.355 58.5939C89.4109 58.2985 89.5546 58.0269 89.7673 57.8144C90.0894 57.5922 90.5983 57.837 90.8657 57.5213C90.9172 57.4601 90.9494 57.386 90.9945 57.3216C91.0845 57.2169 91.1938 57.1305 91.3166 57.0672C91.3944 57.006 91.4885 56.9691 91.5872 56.9609C91.6838 56.9609 91.7868 57.0414 91.774 57.138C92.4375 56.9834 93.0366 56.5357 93.6228 56.204C93.8354 56.0848 95.7003 55.2087 95.6939 55.0702C95.6681 54.6418 95.929 54.2746 95.9161 53.8333C95.9161 53.7496 95.7518 53.1891 95.8259 53.1473C94.151 54.1458 92.4117 55.0541 90.7046 56.001C90.6466 56.0365 90.4276 56.1106 90.3825 56.175C90.3825 56.175 90.3664 56.204 90.36 56.2201L90.3117 56.3264V56.3521C90.2423 56.5713 90.1606 56.7864 90.0669 56.9963C90.0669 57.0253 89.7029 57.4762 89.6739 57.3699C89.5322 56.8514 89.3518 56.7709 88.9556 56.9834L88.3887 57.3055L86.5882 58.3072L80.5232 61.6893L73.3759 65.6704L67.4203 68.9879L64.9241 70.3762C64.4259 69.4743 63.9245 68.5735 63.4199 67.6738L62.4536 65.9377C62.3558 65.697 62.2113 65.4781 62.0284 65.2935C61.8899 65.1904 61.6548 65.2162 61.5324 65.1228C61.2329 64.8941 61.017 64.4786 60.7336 64.2113C60.5403 64.0309 60.2472 63.4898 60.3278 63.1902C60.4244 63.2289 60.521 63.2707 60.6177 63.2997C60.5671 63.1014 60.5784 62.8924 60.6499 62.7006C59.6836 61.074 58.7946 59.3734 57.8702 57.7114L57.809 57.6051L60.0636 56.3489L61.7096 55.4309C62.0481 55.2854 62.3717 55.1074 62.6758 54.8995C62.8852 54.7191 63.0978 54.4936 63.32 54.3004C63.4692 54.1869 63.6314 54.0918 63.8032 54.0169L64.4119 53.7206C64.4432 53.7018 64.4786 53.6907 64.515 53.6884C64.5514 53.6924 64.5871 53.701 64.6213 53.7142C64.9434 53.7818 65.7422 53.1859 66.0321 53.0249L67.9067 51.9813L73.5627 48.828L80.6101 44.9048L87.664 40.9721L93.3394 37.8123L96.2382 36.2018L96.3735 36.1277L99.5075 41.7548C99.7014 42.134 100.012 42.4411 100.393 42.6309C100.522 42.6727 100.667 42.7629 100.651 42.895C100.635 43.027 100.442 43.1365 100.487 43.2718C100.532 43.4071 100.78 43.3556 100.838 43.478C100.896 43.6004 100.738 43.8001 100.757 43.9675C100.824 44.1681 100.923 44.3563 101.05 44.5248L101.962 46.1642C102.471 47.0725 102.976 47.9841 103.489 48.902L97.9163 52.0071C97.9439 52.0293 97.9668 52.0566 97.984 52.0876L98.013 52.1617C98.1237 52.2009 98.2313 52.2482 98.3351 52.3034C98.3795 52.3282 98.4162 52.3648 98.4412 52.4091C98.4662 52.4534 98.4785 52.5038 98.4768 52.5546C98.476 52.6049 98.4619 52.6541 98.4358 52.6971C98.4098 52.7401 98.3728 52.7754 98.3286 52.7994L97.9872 52.9927C97.9751 53.0674 97.9405 53.1366 97.8882 53.1912C97.8359 53.2459 97.7682 53.2833 97.6941 53.2987C97.6544 53.302 97.6146 53.302 97.5749 53.2987C97.541 53.3235 97.5022 53.3407 97.461 53.349C97.4199 53.3574 97.3774 53.3567 97.3366 53.347C97.2637 53.3245 97.2022 53.2748 97.165 53.2083C97.1278 53.1417 97.1177 53.0633 97.1369 52.9894C97.1501 52.9563 97.1674 52.9249 97.1884 52.896C97.164 52.8491 97.1529 52.7964 97.1563 52.7436C97.1597 52.6908 97.1775 52.6399 97.2077 52.5965H97.1046C97.0467 52.5965 96.9951 52.5643 96.9404 52.5482C96.6507 52.7271 96.4252 52.9932 96.2962 53.3083C96.2822 53.3255 96.2753 53.3474 96.2769 53.3695C96.2769 53.4146 96.3477 53.4178 96.3896 53.4372C96.4862 53.4823 96.4637 53.624 96.4154 53.7174C96.367 53.8108 96.3091 53.93 96.3735 54.0137C96.3979 54.0419 96.4248 54.0678 96.454 54.091C96.5925 54.2488 96.3799 54.7062 96.7181 54.5194C96.6944 54.4199 96.7093 54.3151 96.76 54.2263C96.8172 54.1366 96.9055 54.0712 97.008 54.0427C97.2584 53.9819 97.514 53.9453 97.7714 53.9332L104.487 50.1776C104.803 50.0006 105.036 49.7057 105.135 49.3574C105.234 49.0091 105.191 48.6357 105.015 48.3191L104.977 48.2514L101.943 42.8048L100.19 39.6547C100.02 39.3551 99.8682 39.0427 99.6814 38.7464C99.6301 38.6364 99.5616 38.5353 99.4785 38.4468Z" fill="#D2D6DA"/>
<path d="M68.4482 56.2423C68.2259 55.9718 68.2935 55.9653 68.2517 55.6755C68.2517 55.6755 68.2517 55.6755 68.2517 55.6561L68.2259 55.6271L68.1873 55.582C68.0359 55.6497 67.8845 55.7238 67.7331 55.8075L64.7666 57.4599L65.9616 59.6018C65.7941 59.3055 66.3867 59.3924 66.4093 59.3892C66.4722 59.3707 66.5371 59.3599 66.6025 59.357C66.6669 59.3707 66.7235 59.4088 66.7604 59.4633C66.8843 59.6799 66.9211 59.9356 66.8634 60.1784C66.828 60.5004 66.9987 60.8225 66.8151 61.1446C66.973 61.4023 68.3998 63.9984 68.4063 63.9952L71.3728 62.3428C71.5435 62.2462 71.9493 62.0755 72.0492 61.9048C72.149 61.7341 71.9912 61.4667 72.1684 61.3862C72.2351 61.3617 72.3065 61.3525 72.3773 61.3592C72.448 61.3659 72.5164 61.3883 72.5774 61.4249C73.1424 60.8655 73.5056 60.1342 73.61 59.346C73.7143 58.5578 73.5539 57.7573 73.154 57.0701C72.3197 55.5724 70.4258 54.6802 68.767 55.3759C68.6511 55.4242 68.8057 55.9428 68.5287 56.0008C68.5816 55.8969 68.6576 55.8066 68.7509 55.7367M70.5997 61.1285L69.218 61.8983C69.1052 61.6954 68.9957 61.4925 68.8798 61.296C69.0247 61.5408 68.6253 61.4635 68.5416 61.4088C68.3386 61.2735 68.2839 60.8837 68.2774 60.6647C68.2726 60.2891 68.1609 59.9227 67.9553 59.6082C67.6311 59.022 67.309 58.4358 66.9891 57.8496L68.3709 57.0798C69.6592 56.3583 70.9476 56.6578 71.6433 57.9076C72.3391 59.1573 71.8978 60.4167 70.5997 61.1285Z" fill="#D2D6DA"/>
<path d="M78.2562 50.7574C78.3267 50.9104 78.347 51.0817 78.3142 51.2469C78.2981 51.3371 78.1531 51.569 78.1725 51.627C78.224 51.7559 78.2755 51.8847 78.3239 52.0135C78.3325 52.0346 78.3445 52.0542 78.3593 52.0715C78.384 52.0882 78.4132 52.0971 78.443 52.0973C78.9552 52.1424 78.9326 52.1939 78.9648 52.6255C78.9938 52.9959 79.3127 53.2085 79.4931 53.5306C79.7353 53.9538 79.8406 54.4416 79.7944 54.927C79.7482 55.4125 79.5528 55.8717 79.2351 56.2416C78.9175 56.6116 78.493 56.874 78.0201 56.993C77.5473 57.112 77.0491 57.0817 76.5942 56.9062C76.5821 56.9178 76.5692 56.9286 76.5555 56.9384C76.4878 56.9725 76.4103 56.9816 76.3365 56.9641C76.1691 56.9167 76.0175 56.8249 75.8979 56.6985C75.7783 56.5721 75.695 56.4157 75.6569 56.2459C75.6521 56.2203 75.6521 56.1941 75.6569 56.1686C75.5658 56.0558 75.4849 55.935 75.4153 55.8078C75.2498 55.5417 75.141 55.2442 75.0958 54.9341C75.0505 54.624 75.0697 54.3078 75.1523 54.0055C75.2348 53.7031 75.3789 53.4211 75.5755 53.177C75.772 52.9329 76.0169 52.732 76.2946 52.5869C76.6974 52.3571 77.1592 52.2518 77.6217 52.2841L77.5959 52.2454C77.3189 51.8782 78.3174 51.7301 77.8665 51.4821C77.6764 51.379 77.7087 50.912 77.6603 50.7219C76.9286 50.7384 76.2125 50.9366 75.5764 51.2985C73.515 52.4484 72.8031 54.7256 73.8854 56.6678C74.3407 57.5034 75.0939 58.137 75.9951 58.4426C76.207 58.5348 76.4341 58.5872 76.6651 58.5972C76.9292 58.5746 76.8003 58.5972 76.9131 58.4393C77.0258 58.2815 76.9582 58.2139 77.1289 58.0464C77.2996 57.8789 77.4993 57.779 77.5347 57.5214C77.5347 57.6373 77.6636 57.7211 77.6636 57.8435C77.6636 57.8789 77.6636 57.9143 77.6636 57.9465C77.6704 57.9886 77.6895 58.0278 77.7183 58.0593C77.8278 58.2074 78.0114 58.3814 78.0146 58.5521C78.4859 58.4739 78.9382 58.3078 79.3481 58.0625C81.3999 56.919 82.1278 54.6451 81.0391 52.6964C80.4755 51.7011 79.4158 50.8218 78.2562 50.7574Z" fill="#D2D6DA"/>
<path d="M84.8431 46.2736L87.0527 50.2386L81.5964 48.0805L80.3467 48.7795C81.1906 50.2933 82.086 51.7911 82.8783 53.3339C82.9331 53.1664 83.0619 53.1342 83.2166 53.1117C83.5064 53.073 83.4968 53.218 83.6546 53.5046C83.6739 53.5401 83.6965 53.5755 83.7319 53.5819C83.7673 53.5884 83.8382 53.5304 83.8962 53.5368C83.9541 53.5433 83.9767 53.6141 83.9606 53.6689C83.9402 53.7225 83.9132 53.7734 83.8801 53.8203C83.7867 53.9974 83.9413 54.1102 83.9219 54.2712C83.9219 54.355 83.6417 54.6964 83.6739 54.7544L83.996 55.3084L85.4905 54.4774L85.0911 53.7623H85.0171C84.5822 53.8203 84.7755 53.2502 84.6789 53.015C84.5225 52.682 84.3449 52.3592 84.1474 52.0488L83.2681 50.4995L87.7033 52.2452C87.6919 52.1178 87.7072 51.9895 87.7484 51.8684C87.7839 51.8007 88.0705 51.6751 88.0705 51.6107C88.0871 51.8184 88.1842 52.0115 88.3411 52.1486C88.5118 52.3 88.5118 52.2774 88.4796 52.5448L88.7437 52.6511L89.987 51.9586L86.3473 45.4297L84.8431 46.2736Z" fill="#D2D6DA"/>
<path d="M92.352 49.0599L91.5081 47.5493L94.5422 45.8583L93.898 44.6826L90.8671 46.3736L90.078 44.9532L92.1265 43.813C92.213 43.7014 92.323 43.6101 92.4486 43.5456C92.5122 43.513 92.5856 43.5049 92.6547 43.5231L93.5212 43.0432C93.5212 43.0432 92.906 41.9448 92.848 41.8289C92.5517 41.9641 92.848 42.3378 92.5484 42.5181C92.6096 42.5826 92.6998 42.8112 92.5484 42.8402C92.4615 42.8402 92.3971 42.7307 92.3101 42.7404C92.2231 42.7501 92.2199 42.7919 92.1748 42.779C92.1611 42.7752 92.1485 42.7682 92.1379 42.7587C92.1273 42.7493 92.119 42.7375 92.1136 42.7243C92.0719 42.6271 92.019 42.5352 91.9558 42.4505C91.7529 42.254 89.9008 43.4876 89.6431 43.6326L87.9199 44.5989L91.5564 51.1278L93.009 50.3193L93.038 50.2806C93.1443 50.1454 93.2474 50.0069 93.3601 49.8812C93.4059 49.8377 93.4644 49.8102 93.5271 49.8026C93.5898 49.7951 93.6532 49.808 93.708 49.8394C93.734 49.8529 93.757 49.8715 93.7756 49.8941L96.6133 48.3126L95.9369 47.0983L92.352 49.0599Z" fill="#D2D6DA"/>
</g>
</svg>
