<svg width="250" height="200" viewBox="0 0 250 200" fill="none" xmlns="http://www.w3.org/2000/svg">
<g opacity="0.4">
<path d="M127.85 199.607C195.309 199.607 249.996 169.877 249.996 133.204C249.996 96.5304 195.309 66.8008 127.85 66.8008C60.3906 66.8008 5.7041 96.5304 5.7041 133.204C5.7041 169.877 60.3906 199.607 127.85 199.607Z" fill="#F5F5F5"/>
<path d="M189.644 125.211C203.711 125.211 215.115 118.626 215.115 110.504C215.115 102.381 203.711 95.7969 189.644 95.7969C175.577 95.7969 164.173 102.381 164.173 110.504C164.173 118.626 175.577 125.211 189.644 125.211Z" fill="#E0E0E0"/>
<path d="M51.8579 162.504C65.9252 162.504 77.329 155.919 77.329 147.797C77.329 139.674 65.9252 133.09 51.8579 133.09C37.7905 133.09 26.3867 139.674 26.3867 147.797C26.3867 155.919 37.7905 162.504 51.8579 162.504Z" fill="#E0E0E0"/>
<path d="M227.922 105.359L224.241 103.256C224.241 103.256 222.477 93.5297 223.793 85.1741C225.65 73.4215 233.651 69.3638 236.562 70.5325C239.473 71.7012 240.15 75.1855 234.923 82.0011C231.805 85.9823 227.846 94.4472 227.922 105.359Z" fill="#9C9C9C"/>
<g opacity="0.1">
<path d="M227.922 105.359L224.241 103.256C224.241 103.256 222.477 93.5297 223.793 85.1741C225.65 73.4215 233.651 69.3638 236.562 70.5325C239.473 71.7012 240.15 75.1855 234.923 82.0011C231.805 85.9823 227.846 94.4472 227.922 105.359Z" fill="black"/>
</g>
<path d="M226.17 100.572H226.208C226.242 100.569 226.276 100.559 226.306 100.542C226.337 100.526 226.364 100.504 226.386 100.477C226.408 100.45 226.424 100.419 226.434 100.386C226.444 100.352 226.447 100.317 226.443 100.283C225.241 89.2403 230.014 77.3458 235.126 72.6109C235.178 72.5631 235.208 72.4969 235.21 72.4267C235.213 72.3565 235.188 72.2882 235.14 72.2368C235.092 72.1854 235.026 72.1551 234.956 72.1525C234.885 72.15 234.817 72.1754 234.766 72.2232C229.567 77.0236 224.701 89.153 225.919 100.343C225.927 100.404 225.957 100.461 226.003 100.503C226.049 100.545 226.108 100.569 226.17 100.572Z" fill="white"/>
<path d="M238.129 111.253C238.708 111.586 239.904 110.86 240.363 110.549C241.15 110.015 241.786 109.287 242.209 108.435C242.683 107.467 242.845 106.376 242.673 105.311C242.577 104.757 242.445 104.21 242.28 103.673C242.122 103.127 241.969 102.581 241.816 102.062C241.626 101.538 241.546 100.98 241.581 100.424C241.718 99.3313 242.673 98.5503 243.585 97.8841C244.568 97.1468 245.595 96.1747 245.59 94.8476C245.515 93.818 245.105 92.8413 244.421 92.0679C243.787 91.2651 243.034 90.5551 242.46 89.7086C242.006 89.1182 241.771 88.3887 241.794 87.6443C241.853 87.1901 242.005 86.7531 242.242 86.3609C242.78 85.5391 243.251 84.6753 243.651 83.7777C243.973 82.8493 243.929 81.6916 243.203 81.0471C242.878 80.8089 242.509 80.6379 242.117 80.5441C241.725 80.4503 241.318 80.4357 240.92 80.501C240.167 80.5926 239.442 80.8459 238.796 81.2437C236.688 82.4179 235.486 84.9137 233.253 85.8148C232.373 86.0737 231.48 86.2815 230.577 86.4374C230.118 86.5207 229.682 86.7 229.297 86.9635C228.912 87.227 228.587 87.5688 228.343 87.9665C227.524 89.6049 229.047 91.6255 228.469 93.3622C227.955 94.9022 226.459 95.4921 225.623 96.8792C225.28 97.4915 225.142 98.1979 225.23 98.8944C225.301 100.073 225.588 101.228 226.077 102.302C226.625 103.37 227.251 104.396 227.95 105.371C227.955 105.393 238.037 111.204 238.129 111.253Z" fill="#9C9C9C"/>
<path d="M232.155 108.073C232.19 108.073 232.224 108.065 232.256 108.051C232.288 108.037 232.317 108.016 232.341 107.991C232.365 107.965 232.383 107.935 232.395 107.903C232.408 107.87 232.413 107.835 232.412 107.8C231.98 97.3857 236.884 85.8899 240.456 82.5476C240.481 82.5239 240.501 82.4956 240.515 82.4641C240.53 82.4326 240.537 82.3987 240.538 82.3642C240.539 82.3297 240.534 82.2953 240.521 82.2631C240.509 82.2309 240.491 82.2013 240.467 82.1762C240.443 82.1511 240.415 82.1309 240.383 82.1168C240.352 82.1027 240.318 82.0949 240.284 82.0939C240.249 82.0928 240.215 82.0986 240.182 82.1109C240.15 82.1232 240.121 82.1416 240.096 82.1653C236.453 85.5731 231.45 97.2601 231.904 107.833C231.909 107.897 231.938 107.957 231.984 108.001C232.03 108.045 232.091 108.071 232.155 108.073Z" fill="white"/>
<path d="M233.717 95.7665H233.793C236.26 95.0844 238.795 94.676 241.352 94.5487C241.421 94.5444 241.485 94.5137 241.532 94.4627C241.579 94.4118 241.604 94.3448 241.603 94.2756C241.603 94.2407 241.596 94.2061 241.582 94.1742C241.568 94.1422 241.547 94.1134 241.522 94.0898C241.496 94.0661 241.466 94.0481 241.433 94.0369C241.4 94.0256 241.365 94.0214 241.33 94.0244C238.729 94.1554 236.15 94.5712 233.64 95.2641C233.607 95.2741 233.577 95.2905 233.55 95.3124C233.523 95.3343 233.501 95.3612 233.485 95.3916C233.469 95.4221 233.459 95.4554 233.455 95.4898C233.452 95.5241 233.455 95.5588 233.466 95.5918C233.483 95.644 233.517 95.6892 233.562 95.7207C233.608 95.7521 233.662 95.7682 233.717 95.7665Z" fill="white"/>
<path d="M16.1845 117.185L19.8435 115.071C19.8435 115.071 21.6184 105.345 20.2968 96.989C18.4454 85.2365 10.4666 81.1843 7.5339 82.3475C4.60122 83.5108 3.94587 87.0005 9.17227 93.8161C12.2906 97.7973 16.2828 106.279 16.1845 117.185Z" fill="#9C9C9C"/>
<g opacity="0.1">
<path d="M16.1845 117.185L19.8435 115.071C19.8435 115.071 21.6184 105.345 20.2968 96.989C18.4454 85.2365 10.4666 81.1843 7.5339 82.3475C4.60122 83.5108 3.94587 87.0005 9.17227 93.8161C12.2906 97.7973 16.2828 106.279 16.1845 117.185Z" fill="black"/>
</g>
<path d="M18.1344 116.621C18.0629 116.617 17.9959 116.585 17.9479 116.532C17.8999 116.479 17.8747 116.409 17.8777 116.337C18.7406 99.9536 16.4359 90.6313 10.1664 85.0991C10.1161 85.0471 10.0879 84.9776 10.0879 84.9052C10.0879 84.8329 10.1161 84.7633 10.1664 84.7114C10.2184 84.661 10.2879 84.6328 10.3603 84.6328C10.4327 84.6328 10.5022 84.661 10.5542 84.7114C16.9602 90.3637 19.3249 99.839 18.4511 116.386C18.4465 116.423 18.4345 116.458 18.4159 116.49C18.3973 116.522 18.3724 116.55 18.3429 116.571C18.3133 116.593 18.2795 116.609 18.2437 116.618C18.2079 116.626 18.1707 116.627 18.1344 116.621Z" fill="white"/>
<path d="M17.2932 116.542C17.3697 113.025 15.3217 101.376 8.42964 97.1382C1.53758 92.9003 -1.81015 98.1813 0.980535 101.382C3.02849 103.724 6.84043 105.417 10.4285 110.262C12.8915 113.593 14.3114 118.273 14.3114 118.273L17.2932 116.542Z" fill="#9C9C9C"/>
<path d="M16.0587 117.905C15.989 117.905 15.9219 117.879 15.8712 117.831C15.8204 117.783 15.7898 117.718 15.7856 117.649C15.1248 108.769 10.0841 100.801 3.52519 98.2776C3.49148 98.2647 3.46065 98.2453 3.43445 98.2205C3.40824 98.1956 3.38719 98.1659 3.37248 98.1329C3.35778 98.1 3.34971 98.0644 3.34873 98.0284C3.34776 97.9923 3.3539 97.9564 3.36681 97.9227C3.37972 97.8889 3.39914 97.8581 3.42397 97.8319C3.4488 97.8057 3.47854 97.7846 3.5115 97.7699C3.54447 97.7552 3.58 97.7472 3.61608 97.7462C3.65217 97.7452 3.68809 97.7514 3.72179 97.7643C10.4882 100.369 15.6546 108.528 16.3318 117.61C16.3347 117.647 16.3304 117.683 16.319 117.718C16.3077 117.752 16.2895 117.784 16.2656 117.812C16.2417 117.839 16.2125 117.862 16.1798 117.878C16.147 117.894 16.1115 117.903 16.0751 117.905H16.0587Z" fill="white"/>
<path d="M85.5916 166.438L74.7674 160.19C73.6424 159.524 73.0144 157.853 73.0144 155.701L72.9707 108.227L83.8932 114.523L83.8495 162.151C83.8331 164.248 84.5103 165.744 85.5916 166.438Z" fill="#9C9C9C"/>
<path opacity="0.2" d="M85.5916 166.438L74.7674 160.19C73.6424 159.524 73.0144 157.853 73.0144 155.701L72.9707 108.227L83.8932 114.523L83.8495 162.151C83.8331 164.248 84.5103 165.744 85.5916 166.438Z" fill="black"/>
<path d="M85.6678 166.482L85.5914 166.438C84.4991 165.744 83.8329 164.253 83.8329 162.151L83.8765 114.523L72.9541 108.227L82.3856 102.727L82.473 102.678L83.811 101.903L85.3183 100.854L85.3784 100.816L85.4385 100.772C85.5204 100.717 85.5859 100.657 85.6569 100.603L85.7443 100.543L86.0064 100.346L86.2576 100.149C86.3268 100.084 86.3978 100.024 86.4706 99.9693L86.5525 99.9037L86.629 99.8382C86.771 99.729 86.9075 99.6088 87.0386 99.4942L87.2461 99.303L87.3226 99.2211C87.5793 98.9863 87.8359 98.7296 88.0708 98.4729L88.1581 98.391C88.2564 98.2854 88.3493 98.1816 88.4367 98.0797C88.4831 98.0307 88.5252 97.9777 88.5623 97.9213C88.6065 97.8796 88.6467 97.8339 88.6824 97.7848V97.7466L88.7152 97.6974L88.7753 97.6319L89.0647 97.266C89.1412 97.1567 89.2231 97.0421 89.2941 96.9274L89.3542 96.8564V96.8236C89.4579 96.6762 89.5508 96.5287 89.6436 96.3813C89.7364 96.2338 89.802 96.1246 89.8784 95.9935L89.9057 95.9444C89.9658 95.8242 90.0313 95.715 90.0914 95.5948L90.1843 95.4255C90.2607 95.2781 90.3317 95.1306 90.3973 94.9777L90.5174 94.6992C90.5653 94.6081 90.6055 94.5131 90.6375 94.4152C90.6778 94.3384 90.7107 94.2579 90.7358 94.1749C90.7632 94.0985 90.8014 94.0111 90.8287 93.9346C90.8997 93.7435 90.9598 93.5469 91.0253 93.3448C91.0744 93.1864 91.1291 93.0171 91.1727 92.8478C91.1727 92.8478 91.1727 92.8041 91.1727 92.7768C91.2274 92.5966 91.2656 92.4109 91.3038 92.2307V92.1707C91.3038 92.0287 91.3693 91.8812 91.3966 91.7283C91.4349 91.5208 91.4786 91.2805 91.5059 91.0566V90.9419C91.5059 90.8927 91.5059 90.8436 91.5059 90.789C91.5089 90.7691 91.5089 90.7488 91.5059 90.7289C91.5033 90.6779 91.5033 90.6269 91.5059 90.576C91.5332 90.3084 91.555 90.0299 91.5769 89.7896V89.6694V89.369C91.5769 88.9758 91.5878 88.5772 91.6096 88.173V88.0747C91.6096 87.9601 91.6096 87.8563 91.6096 87.7361V87.4412C91.6096 87.3102 91.6096 87.1682 91.6096 87.0426C91.6125 87.008 91.6125 86.9733 91.6096 86.9388C91.6124 86.9043 91.6124 86.8696 91.6096 86.835V86.6876C91.6096 86.4855 91.5823 86.2889 91.566 86.1087V86.0759C91.566 85.9012 91.5277 85.7373 91.5113 85.579C91.4126 84.8409 91.2611 84.1109 91.0581 83.3945C90.9324 82.9576 90.7959 82.5589 90.6758 82.1821C90.3569 81.3264 90.1334 80.4381 90.0095 79.5334C90.0095 79.3532 89.9658 79.1675 89.9494 78.9873C89.933 78.807 89.9494 78.5667 89.9112 78.3428V78.2445C89.9058 78.1919 89.9058 78.1388 89.9112 78.0862C89.9007 77.9717 89.9007 77.8565 89.9112 77.7421C89.9112 75.2245 91.4403 72.2809 93.3354 71.1886C93.5232 71.0779 93.7254 70.9934 93.9361 70.9374C94.0717 70.9005 94.2108 70.8785 94.3512 70.8719C94.4854 70.8552 94.6211 70.8552 94.7553 70.8719C94.8202 70.8807 94.8842 70.8953 94.9464 70.9156C95.1371 70.9722 95.3204 71.051 95.4926 71.1504L106.606 77.48C106.67 77.5161 106.732 77.5563 106.792 77.6001C107.436 78.0916 107.797 79.0255 107.797 80.2379C107.797 80.4017 107.797 80.571 107.764 80.8332V80.9041C107.689 82.4804 107.436 84.043 107.01 85.5626C106.917 85.9503 106.825 86.3381 106.737 86.7477C106.699 86.8842 106.672 87.0262 106.644 87.1627C106.546 87.5778 106.459 88.0092 106.388 88.4734C106.36 88.6209 106.339 88.7792 106.317 88.9322L113.962 84.6014L124.885 90.8982V103.426C124.885 106.943 124.617 109.292 124.071 110.602C123.689 111.509 123.105 112.077 121.756 112.852C120.697 113.506 119.483 113.866 118.239 113.895C117.845 113.895 117.474 113.966 117.097 114.016L116.655 114.092C116.513 114.119 116.376 114.147 116.229 114.185C115.967 114.245 115.683 114.332 115.421 114.42L115.202 114.502C114.79 114.661 114.387 114.844 113.995 115.048C113.945 115.068 113.897 115.093 113.853 115.124H113.815L113.749 115.157C113.602 115.222 113.433 115.304 113.258 115.403C111.639 116.41 110.264 117.764 109.233 119.368C108.687 120.18 108.206 121.034 107.797 121.923C107.406 122.764 107.074 123.631 106.803 124.517L107.404 123.879C107.972 123.239 108.577 122.634 109.217 122.065C109.75 121.604 110.326 121.194 110.937 120.842C111.811 120.34 112.51 119.936 113.029 120.258L123.853 126.707L123.978 126.8C124.008 126.829 124.036 126.86 124.06 126.893C124.08 126.906 124.095 126.925 124.104 126.948C124.136 126.983 124.163 127.021 124.186 127.062C124.186 127.062 124.186 127.062 124.186 127.09C124.219 127.142 124.249 127.197 124.273 127.254C124.552 127.843 124.737 128.892 124.819 130.65C124.819 130.842 124.819 131.044 124.819 131.262C124.819 131.808 124.819 132.431 124.819 133.113V145.636L89.1576 166.225C88.5778 166.581 87.9236 166.798 87.2461 166.858C87.0317 166.878 86.8161 166.878 86.6017 166.858C86.5306 166.855 86.4606 166.84 86.3942 166.815C86.137 166.74 85.8923 166.628 85.6678 166.482Z" fill="#9C9C9C"/>
<path opacity="0.1" d="M113.023 120.256L123.836 126.706C123.323 126.378 122.619 126.793 121.745 127.295C121.134 127.646 120.56 128.056 120.03 128.519C119.386 129.082 118.779 129.686 118.211 130.326C116.962 131.775 115.524 133.05 113.935 134.116C113.722 134.269 113.471 134.428 113.236 134.564C109.277 136.853 106.055 134.417 106.055 129.136C106.074 127.564 106.327 126.003 106.803 124.505C107.005 124.292 107.196 124.079 107.393 123.877C107.961 123.237 108.566 122.632 109.206 122.064C109.737 121.602 110.311 121.193 110.921 120.84C111.8 120.338 112.51 119.934 113.023 120.256Z" fill="black"/>
<path opacity="0.1" d="M106.284 88.9378L113.968 84.6016L124.89 90.9038L115.503 96.3214L112.679 97.7959H112.646H112.619L112.417 97.8833L112.313 97.9215L111.844 98.1126L111.581 98.2055L111.51 98.2328C111.357 98.2819 111.21 98.3365 111.068 98.3748L110.762 98.4567C110.604 98.5004 110.456 98.5277 110.309 98.555H110.26L110.058 98.5878C109.877 98.6125 109.694 98.6271 109.512 98.6314H109.337C109.124 98.6288 108.912 98.6069 108.703 98.5659L108.594 98.5386C108.433 98.4948 108.276 98.4381 108.124 98.3693C108.079 98.3541 108.037 98.332 107.999 98.3038C107.862 98.2253 107.731 98.1377 107.606 98.0416H107.578L107.485 97.9597C107.344 97.8289 107.216 97.6844 107.103 97.5283L107.049 97.4627C106.754 97.0083 106.536 96.5082 106.404 95.9828L106.377 95.8899C106.306 95.6114 106.257 95.3438 106.208 95.0434V94.896C106.158 94.5683 106.12 94.2188 106.098 93.8638C106.066 93.3941 106.055 92.9845 106.055 92.5749C106.039 91.3585 106.116 90.1427 106.284 88.9378Z" fill="black"/>
<path opacity="0.1" d="M83.8766 114.525L72.9541 108.228L82.3856 102.729L82.4676 102.68H82.5003L83.8383 101.904L85.3511 100.856L85.4057 100.817L85.4658 100.774C85.5477 100.719 85.6132 100.659 85.6842 100.604L85.7661 100.544L86.0337 100.348L86.2849 100.151C86.3541 100.086 86.4251 100.026 86.4979 99.9709L86.5799 99.9054L86.6563 99.8399C86.7983 99.7306 86.9348 99.6105 87.0659 99.4958L87.2734 99.3047L87.3499 99.2227C87.6066 98.9879 87.8632 98.7312 88.0981 98.4746L88.1855 98.3926C88.2838 98.2871 88.3766 98.1833 88.464 98.0814C88.5104 98.0324 88.5525 97.9794 88.5896 97.923C88.6333 97.8793 88.666 97.8301 88.7043 97.7864L88.737 97.7482L88.7753 97.7045L88.8299 97.6335C88.9282 97.5134 89.0319 97.3932 89.1193 97.2676L89.3542 96.9345L89.4088 96.858V96.8253C89.5125 96.6778 89.6054 96.5304 89.6982 96.3829C89.791 96.2354 89.8566 96.1262 89.933 95.9952V95.9405C89.9986 95.8259 90.0641 95.7166 90.1242 95.5965C90.1602 95.542 90.193 95.4854 90.2225 95.4272C90.288 95.2743 90.3645 95.1268 90.43 94.9794L90.5502 94.7009C90.5939 94.6135 90.6321 94.5206 90.6758 94.4223C90.7195 94.324 90.7413 94.264 90.7686 94.1766C90.7959 94.0892 90.8341 94.0127 90.8615 93.9363C90.9324 93.7397 90.9925 93.554 91.0581 93.3465C91.1072 93.1881 91.1618 93.0188 91.2055 92.8495C91.2055 92.8495 91.2055 92.8058 91.2055 92.7785C91.2492 92.6037 91.2983 92.4126 91.3366 92.2324V92.1778C91.3639 92.0249 91.3967 91.8829 91.424 91.7299C91.4622 91.5224 91.5059 91.2821 91.5332 91.0582V90.9435C91.5332 90.8998 91.5332 90.8452 91.5332 90.7906C91.5362 90.7707 91.5362 90.7504 91.5332 90.7305C91.5332 90.6814 91.5332 90.6268 91.5332 90.5722C91.5659 90.2991 91.5878 90.026 91.6042 89.7912V89.6711C91.6042 89.5673 91.6042 89.4799 91.6042 89.3707C91.6042 88.9775 91.6151 88.5788 91.6369 88.1747V88.0764C91.6369 87.9617 91.6369 87.8579 91.6369 87.7378V87.4429C91.6369 87.3118 91.6369 87.1698 91.6369 87.0388V86.9404C91.6397 86.9059 91.6397 86.8712 91.6369 86.8367V86.6892C91.6369 86.4872 91.6096 86.2906 91.5933 86.1103V86.0721L91.5441 85.5806C91.4454 84.8425 91.2939 84.1125 91.0908 83.3961C90.9707 82.9537 90.8341 82.5551 90.7085 82.1837C90.3897 81.328 90.1662 80.4398 90.0423 79.535C90.0423 79.3548 89.9986 79.1691 89.9822 78.9889C89.9658 78.8087 89.9822 78.5738 89.9494 78.3445V78.2462C89.9494 78.1916 89.9494 78.137 89.9494 78.0823C89.9389 77.9679 89.9389 77.8527 89.9494 77.7383C89.9494 75.2207 91.4786 72.2771 93.3736 71.1848C93.5615 71.0741 93.7636 70.9896 93.9743 70.9336C94.1099 70.8967 94.2491 70.8747 94.3894 70.8681C94.5232 70.8461 94.6597 70.8461 94.7935 70.8681C94.8584 70.8769 94.9224 70.8915 94.9847 70.9118C95.1753 70.9683 95.3586 71.0472 95.5308 71.1466L106.606 77.4816C106.374 77.3476 106.114 77.2691 105.847 77.2522C105.653 77.2448 105.458 77.2613 105.268 77.3014C104.95 77.3726 104.646 77.4943 104.367 77.6618C104.033 77.8604 103.724 78.0968 103.444 78.3663C102.68 79.119 102.073 80.0155 101.658 81.0041C101.56 81.2171 101.484 81.4355 101.402 81.6594C101.298 81.9729 101.212 82.292 101.145 82.6152C101.025 83.1347 100.963 83.6658 100.959 84.1989C100.959 84.3464 100.959 84.5157 100.959 84.7013V84.756C100.982 85.6415 101.108 86.5213 101.336 87.3773C101.369 87.5193 101.413 87.6559 101.451 87.7924C101.538 88.0709 101.626 88.3385 101.713 88.6116C101.839 88.9884 101.975 89.3816 102.101 89.824C102.144 89.9769 102.183 90.1298 102.221 90.2827C102.259 90.4356 102.297 90.6049 102.341 90.7742C102.462 91.344 102.552 91.9202 102.609 92.5V92.5273C102.603 92.6237 102.603 92.7203 102.609 92.8167V93.1116V93.1881V93.2645C102.609 93.3301 102.609 93.3956 102.609 93.4666C102.614 93.5339 102.614 93.6014 102.609 93.6687C102.609 93.7342 102.609 93.8052 102.609 93.8707V94.1711C102.609 94.2749 102.609 94.3841 102.609 94.5042V94.5534C102.609 94.7555 102.609 94.9575 102.609 95.1596C102.609 95.3617 102.609 95.5583 102.581 95.7603C102.581 95.8586 102.581 95.9624 102.581 96.0552V96.1754C102.581 96.432 102.543 96.6942 102.51 96.9563C102.51 97.0819 102.477 97.2021 102.461 97.3332V97.4369L102.346 98.1196L102.248 98.5619V98.6165C102.248 98.7203 102.204 98.8241 102.172 98.9333C102.139 99.0425 102.117 99.1408 102.09 99.2337C102.062 99.3265 102.09 99.3211 102.062 99.3647C102.035 99.4084 101.981 99.6105 101.948 99.7361C101.888 99.9327 101.822 100.129 101.751 100.32C101.68 100.512 101.626 100.648 101.565 100.806C101.505 100.965 101.407 101.183 101.325 101.353L101.101 101.811C101.058 101.893 101.014 101.986 100.965 102.068L100.828 102.325L100.795 102.379C100.761 102.447 100.723 102.513 100.681 102.576L100.643 102.641C100.619 102.684 100.592 102.724 100.561 102.762C100.468 102.915 100.375 103.062 100.277 103.209V103.242L100.222 103.319C100.186 103.376 100.145 103.431 100.102 103.482C100.067 103.539 100.028 103.594 99.9872 103.646L99.8834 103.783C99.8258 103.864 99.7639 103.943 99.6977 104.018L99.6431 104.089L99.583 104.171L99.4574 104.318L99.4192 104.362C99.4192 104.395 99.3646 104.433 99.3318 104.466L99.1898 104.624C99.1516 104.673 99.1024 104.722 99.0533 104.777L98.9714 104.859C98.734 105.122 98.4824 105.371 98.2177 105.607L98.1413 105.689L97.9283 105.88C97.8027 106 97.6661 106.115 97.5241 106.229L97.4477 106.29L97.4095 106.328L97.3712 106.361L97.1582 106.535L96.6121 106.929L96.5302 106.994L96.3118 107.158L96.1916 107.24L94.6789 108.288L93.3409 109.064L93.2972 109.097L93.2098 109.14L83.8766 114.525Z" fill="black"/>
<mask id="mask0_6232_56830" style="mask-type:luminance" maskUnits="userSpaceOnUse" x="106" y="60" width="64" height="86">
<path d="M113.248 129.544C113.362 129.478 113.493 129.386 113.635 129.287C114.83 128.481 115.91 127.516 116.847 126.42C117.333 125.874 117.764 125.437 118.256 124.962L118.332 124.886L118.474 124.749L118.54 124.684C118.785 124.454 119.026 124.241 119.266 124.034L123.793 126.737C123.886 126.794 123.968 126.868 124.034 126.955C124.073 127.001 124.107 127.051 124.137 127.103V127.136C124.166 127.185 124.192 127.236 124.214 127.289V127.338L124.279 127.507C124.279 127.507 124.279 127.551 124.279 127.573C124.303 127.633 124.323 127.695 124.339 127.758C124.339 127.786 124.339 127.813 124.339 127.84C124.339 127.867 124.378 127.988 124.399 128.069V128.14C124.399 128.239 124.438 128.343 124.46 128.457C124.46 128.583 124.498 128.714 124.52 128.85V128.883L124.569 129.276C124.569 129.32 124.569 129.364 124.569 129.407L124.602 129.746C124.602 129.806 124.602 129.866 124.602 129.921C124.602 129.975 124.602 130.145 124.629 130.265C124.656 130.385 124.629 130.401 124.629 130.472V130.827C124.629 130.904 124.629 130.986 124.629 131.068C124.629 131.15 124.629 131.324 124.629 131.455C124.629 131.587 124.629 131.614 124.629 131.696C124.629 131.778 124.629 132.007 124.629 132.165V132.384C124.629 132.624 124.629 132.864 124.629 133.121V145.633L169.411 119.768V112.707C169.414 112.665 169.414 112.623 169.411 112.581V60.0117L160.018 65.4347L159.843 65.5385L159.734 65.604L157.882 66.7509C157.141 67.2414 156.428 67.7738 155.747 68.3456L155.703 68.3838L155.589 68.4766C155.419 68.6186 155.261 68.7661 155.102 68.9135L155.059 68.9572L154.857 69.1538C154.709 69.2958 154.567 69.4378 154.425 69.5852L154.158 69.8747C154.027 70.0221 153.896 70.1696 153.77 70.3225C153.644 70.4754 153.606 70.5246 153.513 70.6502C153.42 70.7758 153.268 70.9669 153.153 71.1253L152.956 71.4148L152.913 71.4912L152.858 71.5677C152.765 71.7097 152.672 71.8517 152.59 71.9936C152.508 72.1356 152.465 72.2066 152.41 72.3213L152.361 72.4032C152.197 72.7091 152.033 73.0313 151.891 73.359L151.853 73.4409C151.793 73.5774 151.727 73.7139 151.673 73.8559C151.618 73.9979 151.564 74.1454 151.514 74.2928L151.476 74.402C151.416 74.5713 151.356 74.7352 151.307 74.9099C151.258 75.0847 151.203 75.2649 151.154 75.4561C151.105 75.6472 151.061 75.8274 151.018 76.0022C150.974 76.1769 150.941 76.3626 150.908 76.5483C150.876 76.734 150.837 76.9415 150.81 77.1436V77.1818C150.81 77.3456 150.761 77.5095 150.739 77.6788C150.717 77.8481 150.695 78.1157 150.673 78.3505V78.4816C150.673 78.6072 150.673 78.7328 150.646 78.8584C150.646 79.126 150.646 79.4045 150.646 79.7977V79.8523C150.646 79.9233 150.646 79.9889 150.646 80.0599C150.603 82.0718 150.937 84.074 151.629 85.9635C152.087 87.1881 152.342 88.4794 152.383 89.7863V89.8464C152.383 90.0266 152.41 90.1959 152.41 90.3488C152.384 91.6849 152.039 92.9954 151.405 94.1717C150.866 95.2875 150.029 96.2325 148.986 96.9023C148.821 96.9947 148.649 97.075 148.473 97.1426L148.385 97.1754C148.229 97.2287 148.068 97.2653 147.905 97.2846H147.817C147.663 97.3011 147.507 97.3011 147.353 97.2846H147.32C147.165 97.2597 147.014 97.2118 146.872 97.1426L146.829 97.1153L142.105 94.341C142.105 94.199 142.105 94.0624 142.143 93.9205C142.181 93.7785 142.181 93.5928 142.203 93.4289C142.247 93.0904 142.29 92.7627 142.345 92.4459C142.4 92.1292 142.443 91.867 142.498 91.5885C142.531 91.4411 142.558 91.2991 142.585 91.1625C142.716 90.5563 142.853 89.9501 143.011 89.3003C143.483 87.6328 143.733 85.9104 143.754 84.1776C143.754 82.5393 143.612 81.802 143.17 81.5399L137.785 78.4324L128.643 83.7025L124.88 81.518V85.887L121.603 87.793L120.555 88.3937L124.924 90.9059V97.3938V103.434C124.924 106.951 124.656 109.299 124.11 110.61C123.728 111.511 123.143 112.079 121.794 112.86C120.734 113.514 119.518 113.874 118.272 113.903C117.89 113.903 117.507 113.974 117.142 114.023L116.694 114.1C116.557 114.127 116.415 114.154 116.268 114.193C115.995 114.257 115.725 114.335 115.459 114.427H115.405L115.241 114.482C114.829 114.641 114.426 114.823 114.034 115.028L113.887 115.099H113.854H113.788C113.618 115.172 113.453 115.254 113.291 115.345C111.675 116.351 110.303 117.706 109.277 119.31C109.015 119.692 108.769 120.091 108.535 120.5L108.442 120.68C108.24 121.041 108.049 121.407 107.896 121.773L107.857 121.86C107.466 122.701 107.134 123.567 106.864 124.454C106.618 125.254 106.436 126.072 106.317 126.901L111.101 129.664C111.439 129.831 111.814 129.907 112.19 129.886C112.566 129.865 112.931 129.747 113.248 129.544Z" fill="white"/>
</mask>
<g mask="url(#mask0_6232_56830)">
<path d="M125.54 114.571L113.913 107.859L114.17 107.504L114.197 107.471L114.323 107.291C114.508 107.018 114.683 106.745 114.869 106.455L114.918 106.368C115.087 106.068 115.251 105.74 115.409 105.396C115.442 105.314 115.48 105.232 115.513 105.145V105.09C115.595 104.893 115.693 104.659 115.786 104.396C115.83 104.282 115.868 104.167 115.912 104.041V103.97C115.977 103.774 116.043 103.577 116.098 103.375C116.152 103.173 116.19 103.053 116.234 102.884C116.278 102.714 116.321 102.518 116.371 102.338C116.42 102.157 116.447 101.977 116.48 101.791C116.513 101.606 116.551 101.447 116.578 101.278V101.196C116.611 101.032 116.638 100.858 116.666 100.683C116.693 100.508 116.693 100.481 116.709 100.382V100.273C116.829 99.3994 116.9 98.4819 116.96 97.488V97.3787L117.021 94.6973V81.9453L128.604 88.7282V101.486L128.544 104.173V104.276C128.495 105.27 128.418 106.188 128.303 107.056V107.171C128.303 107.274 128.276 107.373 128.26 107.477C128.243 107.58 128.211 107.821 128.178 107.984V108.061C128.15 108.241 128.118 108.405 128.085 108.58C128.052 108.754 128.009 108.935 127.965 109.126C127.921 109.317 127.883 109.497 127.839 109.672C127.796 109.847 127.746 110.005 127.703 110.163C127.659 110.322 127.583 110.562 127.512 110.753V110.835C127.473 110.95 127.43 111.075 127.386 111.19C127.299 111.441 127.195 111.682 127.113 111.884L127.086 111.933L126.987 112.184C126.829 112.523 126.665 112.85 126.496 113.162L126.447 113.249C126.288 113.522 126.113 113.795 125.928 114.085C125.889 114.145 125.845 114.201 125.797 114.254V114.292L125.54 114.571Z" fill="#9C9C9C"/>
<path d="M117.027 136.748L117.059 126.219L116.896 126.388C117.376 125.842 117.818 125.4 118.299 124.93L118.381 124.854L118.523 124.717L118.621 124.663C119.54 123.778 120.559 123.004 121.658 122.358L121.778 122.298H121.805L121.887 122.249C122.149 122.101 122.433 121.97 122.668 121.845C122.739 121.806 122.815 121.779 122.886 121.746L122.963 121.708C123.138 121.643 123.323 121.561 123.509 121.501C123.607 121.457 123.7 121.435 123.788 121.402H123.831C123.99 121.364 124.143 121.32 124.285 121.293C124.427 121.266 124.503 121.249 124.607 121.238C124.741 121.228 124.876 121.228 125.011 121.238C125.113 121.233 125.215 121.233 125.317 121.238C125.436 121.249 125.555 121.269 125.672 121.298H125.721L125.945 121.353C126.059 121.393 126.169 121.444 126.272 121.506C126.389 121.563 126.501 121.631 126.606 121.708C126.732 121.798 126.851 121.899 126.961 122.008C127.023 122.074 127.081 122.143 127.135 122.216L127.174 122.271L127.206 122.309C127.263 122.381 127.316 122.455 127.365 122.533C127.434 122.637 127.496 122.747 127.55 122.86C127.605 122.964 127.654 123.057 127.698 123.161C127.741 123.265 127.807 123.423 127.862 123.565C127.916 123.707 127.933 123.772 127.965 123.882C127.998 123.991 128.058 124.187 128.102 124.351L128.167 124.624V124.668C128.206 124.848 128.249 125.034 128.282 125.214C128.282 125.263 128.282 125.318 128.282 125.373V125.438C128.402 126.208 128.49 127.076 128.55 128.098V128.141L128.61 130.577V143.509L117.027 136.748Z" fill="#9C9C9C"/>
<path d="M110.877 129.642L99.4466 123.023C98.6875 122.619 98.2451 121.559 98.2451 120.156C98.2933 118.491 98.8163 116.875 99.7524 115.497L99.9709 115.191C99.9163 115.279 99.8507 115.366 99.7961 115.448L111.418 122.16C111.387 122.198 111.36 122.238 111.336 122.28C110.396 123.654 109.873 125.269 109.828 126.933C109.828 128.249 110.233 129.189 110.877 129.642Z" fill="#9C9C9C"/>
<path d="M125.54 114.571L113.913 107.859L114.17 107.504L114.197 107.471L114.323 107.291C114.508 107.018 114.683 106.745 114.869 106.455L114.918 106.368C115.087 106.068 115.251 105.74 115.409 105.396C115.442 105.314 115.48 105.232 115.513 105.145V105.09C115.595 104.893 115.693 104.659 115.786 104.396C115.83 104.282 115.868 104.167 115.912 104.041V103.97C115.977 103.774 116.043 103.577 116.098 103.375C116.152 103.173 116.19 103.053 116.234 102.884C116.278 102.714 116.321 102.518 116.371 102.338C116.42 102.157 116.447 101.977 116.48 101.791C116.513 101.606 116.551 101.447 116.578 101.278V101.196C116.611 101.032 116.638 100.858 116.666 100.683C116.693 100.508 116.693 100.481 116.709 100.382V100.273C116.829 99.3994 116.9 98.4819 116.96 97.488V97.3787L117.021 94.6973V81.9453L128.604 88.7282V101.486L128.544 104.173V104.276C128.495 105.27 128.418 106.188 128.303 107.056V107.171C128.303 107.274 128.276 107.373 128.26 107.477C128.243 107.58 128.211 107.821 128.178 107.984V108.061C128.15 108.241 128.118 108.405 128.085 108.58C128.052 108.754 128.009 108.935 127.965 109.126C127.921 109.317 127.883 109.497 127.839 109.672C127.796 109.847 127.746 110.005 127.703 110.163C127.659 110.322 127.583 110.562 127.512 110.753V110.835C127.473 110.95 127.43 111.075 127.386 111.19C127.299 111.441 127.195 111.682 127.113 111.884L127.086 111.933L126.987 112.184C126.829 112.523 126.665 112.85 126.496 113.162L126.447 113.249C126.288 113.522 126.113 113.795 125.928 114.085C125.889 114.145 125.845 114.201 125.797 114.254V114.292L125.54 114.571Z" fill="#4E4E4E"/>
<path d="M117.027 136.748L117.059 126.219L116.896 126.388C117.376 125.842 117.818 125.4 118.299 124.93L118.381 124.854L118.523 124.717L118.621 124.663C119.54 123.778 120.559 123.004 121.658 122.358L121.778 122.298H121.805L121.887 122.249C122.149 122.101 122.433 121.97 122.668 121.845C122.739 121.806 122.815 121.779 122.886 121.746L122.963 121.708C123.138 121.643 123.323 121.561 123.509 121.501C123.607 121.457 123.7 121.435 123.788 121.402H123.831C123.99 121.364 124.143 121.32 124.285 121.293C124.427 121.266 124.503 121.249 124.607 121.238C124.741 121.228 124.876 121.228 125.011 121.238C125.113 121.233 125.215 121.233 125.317 121.238C125.436 121.249 125.555 121.269 125.672 121.298H125.721L125.945 121.353C126.059 121.393 126.169 121.444 126.272 121.506C126.389 121.563 126.501 121.631 126.606 121.708C126.732 121.798 126.851 121.899 126.961 122.008C127.023 122.074 127.081 122.143 127.135 122.216L127.174 122.271L127.206 122.309C127.263 122.381 127.316 122.455 127.365 122.533C127.434 122.637 127.496 122.747 127.55 122.86C127.605 122.964 127.654 123.057 127.698 123.161C127.741 123.265 127.807 123.423 127.862 123.565C127.916 123.707 127.933 123.772 127.965 123.882C127.998 123.991 128.058 124.187 128.102 124.351L128.167 124.624V124.668C128.206 124.848 128.249 125.034 128.282 125.214C128.282 125.263 128.282 125.318 128.282 125.373V125.438C128.402 126.208 128.49 127.076 128.55 128.098V128.141L128.61 130.577V143.509L117.027 136.748Z" fill="#4E4E4E"/>
<path d="M110.877 129.642L99.4466 123.023C98.6875 122.619 98.2451 121.559 98.2451 120.156C98.2933 118.491 98.8163 116.875 99.7524 115.497L99.9709 115.191C99.9163 115.279 99.8507 115.366 99.7961 115.448L111.418 122.16C111.387 122.198 111.36 122.238 111.336 122.28C110.396 123.654 109.873 125.269 109.828 126.933C109.828 128.249 110.233 129.189 110.877 129.642Z" fill="#4E4E4E"/>
<path d="M110.975 129.68L110.898 129.636C110.254 129.183 109.85 128.243 109.85 126.949C109.894 125.286 110.418 123.67 111.357 122.296C111.381 122.254 111.408 122.214 111.439 122.176L99.8174 115.464C99.872 115.382 99.9375 115.295 99.9921 115.208C100.14 115.016 100.293 114.836 100.451 114.661C100.525 114.576 100.603 114.494 100.686 114.416C100.766 114.327 100.854 114.244 100.948 114.17C101.173 113.961 101.42 113.778 101.685 113.624C101.782 113.567 101.883 113.516 101.985 113.471L102.117 113.416H102.149C102.632 113.159 103.144 112.959 103.673 112.821L103.859 112.777C104.338 112.68 104.823 112.616 105.311 112.586C107.031 112.526 108.706 112.016 110.166 111.106L110.549 110.871C110.663 110.806 110.767 110.735 110.876 110.658C110.986 110.582 111.046 110.555 111.128 110.5H111.16L111.564 110.205L111.947 109.905L112.018 109.85L112.078 109.795L112.122 109.757L112.285 109.615C112.335 109.572 112.395 109.528 112.444 109.479C112.493 109.43 112.64 109.304 112.739 109.206L112.875 109.069L112.935 109.004L113.176 108.752C113.274 108.649 113.372 108.539 113.465 108.43L113.503 108.386L113.662 108.201C113.733 108.102 113.82 108.004 113.891 107.9L125.523 114.618L125.731 114.334V114.296C125.779 114.243 125.823 114.186 125.862 114.126C126.048 113.842 126.222 113.58 126.381 113.291L126.43 113.203C126.599 112.892 126.763 112.564 126.921 112.226L127.02 111.974L127.047 111.925C127.129 111.723 127.233 111.483 127.32 111.232C127.364 111.117 127.407 110.991 127.446 110.877V110.795C127.517 110.604 127.577 110.407 127.637 110.205C127.697 110.003 127.724 109.883 127.773 109.714C127.823 109.544 127.861 109.348 127.899 109.167C127.937 108.987 127.981 108.812 128.019 108.621C128.057 108.43 128.085 108.283 128.112 108.102V108.026C128.145 107.862 128.167 107.693 128.194 107.518C128.221 107.343 128.221 107.316 128.238 107.212V107.098C128.352 106.229 128.429 105.312 128.478 104.318V104.214L128.538 101.527V88.7315L116.955 81.9487L121.706 79.2181L124.158 77.8036L126.343 76.5366L127.194 76.056C127.418 75.9468 127.62 75.8266 127.828 75.7283C128.553 75.331 129.318 75.0124 130.111 74.7781L130.351 74.718C130.598 74.6592 130.852 74.6407 131.105 74.6634C131.247 74.6634 131.323 74.789 131.432 74.8546L143.152 81.5172C143.265 81.5908 143.362 81.6862 143.437 81.7979C143.512 81.9095 143.563 82.0351 143.589 82.1671C143.589 82.26 143.638 82.3692 143.66 82.4839C143.682 82.5986 143.693 82.7296 143.709 82.8716V83.0901C143.709 83.243 143.709 83.4068 143.709 83.587C143.709 83.7673 143.709 83.9584 143.709 84.1659C143.709 84.6848 143.709 85.1544 143.644 85.6022C143.644 85.7169 143.644 85.8261 143.644 85.9354C143.644 86.0446 143.644 86.1484 143.605 86.2576C143.567 86.3668 143.605 86.4651 143.556 86.5743C143.507 86.6836 143.529 86.7819 143.513 86.8856C143.474 87.0877 143.442 87.2843 143.403 87.4918C143.365 87.6994 143.316 87.8905 143.278 88.0871C143.272 88.1011 143.272 88.1167 143.278 88.1308C144.217 86.0288 144.725 83.7592 144.769 81.4572C144.769 81.135 144.769 80.8128 144.736 80.5397C144.681 78.7882 144.345 77.0568 143.742 75.4116C143.223 74.0486 142.969 72.5991 142.994 71.1409C142.994 68.4431 142.994 66.9576 148.717 63.6645L158.061 58.3125L169.683 65.0243V112.57C169.683 116.529 167.269 121.144 164.304 122.859L128.642 143.448V130.526L128.582 128.091V128.047C128.522 127.037 128.434 126.157 128.314 125.387V125.322C128.314 125.267 128.314 125.213 128.314 125.163C128.281 124.967 128.238 124.781 128.199 124.617V124.574L128.134 124.3C128.09 124.137 128.052 123.984 127.997 123.831C127.943 123.678 127.932 123.618 127.894 123.514C127.855 123.41 127.79 123.236 127.73 123.11C127.67 122.984 127.637 122.913 127.582 122.81C127.528 122.696 127.466 122.587 127.397 122.482C127.348 122.405 127.295 122.33 127.238 122.258L127.205 122.22L127.167 122.165C127.113 122.093 127.055 122.023 126.992 121.958C126.883 121.848 126.764 121.747 126.637 121.657C126.533 121.58 126.421 121.512 126.304 121.455C126.2 121.394 126.091 121.342 125.977 121.302L125.753 121.248H125.704C125.587 121.218 125.468 121.198 125.349 121.188C125.247 121.182 125.145 121.182 125.043 121.188C124.908 121.177 124.773 121.177 124.639 121.188C124.535 121.188 124.431 121.22 124.316 121.242C124.202 121.264 124.022 121.313 123.863 121.351H123.819C123.732 121.384 123.639 121.406 123.541 121.45C123.355 121.51 123.17 121.592 122.995 121.657L122.918 121.695C122.847 121.728 122.771 121.756 122.7 121.794C122.438 121.919 122.181 122.05 121.919 122.198L121.837 122.247H121.81L121.69 122.307C120.577 122.967 119.546 123.757 118.62 124.661L118.549 124.726L118.407 124.863L118.325 124.939C117.845 125.409 117.403 125.879 116.922 126.398C115.986 127.494 114.906 128.458 113.711 129.265C113.569 129.363 113.443 129.456 113.323 129.521C113.004 129.719 112.646 129.847 112.274 129.898C112.045 129.942 111.81 129.942 111.581 129.898C111.367 129.862 111.162 129.788 110.975 129.68Z" fill="#595959"/>
<path d="M128.648 88.726L117.064 81.9431L121.816 79.2125L124.268 77.798L126.452 76.531L127.304 76.0505C127.528 75.9412 127.73 75.8211 127.938 75.7228C128.663 75.3254 129.428 75.0069 130.221 74.7725L130.461 74.7125C130.707 74.6536 130.962 74.6351 131.214 74.6578C131.356 74.6578 131.433 74.7834 131.542 74.849L143.12 81.5171C143.079 81.4942 143.035 81.4777 142.989 81.468C142.933 81.4401 142.871 81.4269 142.809 81.4298C142.628 81.4026 142.444 81.4026 142.263 81.4298C142.109 81.4485 141.957 81.4814 141.809 81.5281C140.486 81.9595 139.22 82.5519 138.041 83.292L135.857 84.559L133.399 85.979L128.648 88.726Z" fill="black"/>
<path d="M143.634 101.686C142.542 100.593 141.995 98.7529 141.995 96.5301C141.99 96.2111 142.003 95.892 142.034 95.5744C142.034 95.5744 142.034 95.5744 142.034 95.5362C142.034 94.9901 142.088 94.4822 142.148 93.8978C142.148 93.734 142.187 93.5756 142.208 93.4118C142.247 93.0732 142.296 92.7401 142.35 92.4288C142.405 92.1175 142.449 91.8499 142.503 91.5714C142.536 91.4239 142.563 91.2819 142.591 91.1454C142.722 90.5392 142.858 89.933 143.017 89.2831C143.12 88.8735 143.213 88.4803 143.301 88.0871C144.234 85.999 144.738 83.7441 144.781 81.4572C144.781 81.135 144.781 80.8182 144.742 80.5451C144.69 78.7902 144.357 77.0551 143.754 75.4061C143.237 74.0445 142.983 72.5972 143.006 71.1409C143.006 68.4485 143.006 66.9631 148.729 63.659L158.073 58.3125L169.695 65.0243L160.312 70.4419C154.589 73.7186 154.589 75.2314 154.589 77.9238C154.56 79.3823 154.814 80.8326 155.337 82.1944C155.935 83.8428 156.269 85.5754 156.326 87.328C156.326 87.601 156.364 87.9178 156.358 88.2345C156.358 93.5156 153.142 99.6758 149.171 101.959C147.02 103.209 145.005 103.105 143.634 101.686Z" fill="black"/>
<path d="M111.417 122.182L99.7959 115.47C99.8505 115.388 99.916 115.301 99.9707 115.213C100.118 115.022 100.271 114.842 100.429 114.667C100.503 114.581 100.582 114.499 100.664 114.421C100.745 114.333 100.832 114.25 100.926 114.176C101.151 113.967 101.398 113.784 101.664 113.63C101.761 113.573 101.861 113.522 101.964 113.477L102.095 113.428H102.128C102.611 113.17 103.122 112.97 103.652 112.832L103.837 112.789C104.316 112.691 104.802 112.627 105.29 112.597C107.01 112.538 108.684 112.027 110.145 111.117L110.527 110.883C110.642 110.817 110.746 110.746 110.855 110.67C110.94 110.62 111.022 110.565 111.101 110.506H111.133L111.538 110.211L111.925 109.911L111.991 109.856L112.051 109.801L112.1 109.763L112.258 109.621C112.308 109.577 112.368 109.534 112.417 109.485C112.466 109.435 112.613 109.31 112.712 109.211L112.848 109.075C112.867 109.052 112.889 109.032 112.914 109.015L113.149 108.758C113.247 108.654 113.345 108.545 113.438 108.436L113.476 108.392L113.635 108.207C113.706 108.108 113.793 108.01 113.864 107.906L125.502 114.624L125.453 114.678C125.376 114.787 125.294 114.891 125.212 115C125.131 115.11 125.109 115.115 125.06 115.175L125.016 115.219C124.841 115.421 124.666 115.612 124.47 115.792L124.36 115.901C124.333 115.934 124.3 115.962 124.279 115.994L123.978 116.267L123.661 116.54L123.618 116.584L123.481 116.688C123.23 116.901 122.968 117.097 122.7 117.289C122.7 117.289 122.668 117.289 122.64 117.327C122.334 117.545 122.017 117.748 121.69 117.933L121.351 118.108L120.953 118.31C120.064 118.772 119.107 119.087 118.118 119.244L117.616 119.309H117.365L116.9 119.353C116.209 119.377 115.524 119.495 114.863 119.702C114.661 119.768 114.448 119.85 114.214 119.948C114.066 120.014 113.902 120.09 113.738 120.178L113.602 120.232C113.499 120.277 113.398 120.328 113.302 120.385C113.035 120.545 112.783 120.727 112.548 120.931C112.464 121.002 112.384 121.076 112.308 121.155C112.226 121.232 112.144 121.319 112.067 121.406C111.964 121.508 111.869 121.618 111.783 121.734C111.723 121.803 111.666 121.876 111.614 121.953C111.521 122.056 111.461 122.116 111.417 122.182Z" fill="black"/>
</g>
<mask id="mask1_6232_56830" style="mask-type:luminance" maskUnits="userSpaceOnUse" x="113" y="0" width="57" height="103">
<path d="M124.884 85.8902V73.3293L125.01 69.5065V69.43C125.01 69.3372 125.01 69.2498 125.01 69.1679V69.0423C125.01 68.7965 125.053 68.5617 125.081 68.3323C125.087 68.2149 125.102 68.0981 125.124 67.9828V67.8736C125.124 67.6497 125.179 67.4258 125.206 67.2128C125.234 66.9998 125.25 66.9179 125.277 66.7813C125.321 66.541 125.354 66.3062 125.403 66.0768V66.0004C125.403 65.9075 125.441 65.8092 125.463 65.7164C125.529 65.3996 125.611 65.0938 125.687 64.788C125.687 64.788 125.687 64.7279 125.714 64.6788C125.807 64.3347 125.927 63.9797 126.047 63.6302L126.097 63.4827C126.206 63.1878 126.331 62.8984 126.446 62.6144C126.446 62.5598 126.501 62.4943 126.533 62.4342V62.3905C126.659 62.1284 126.785 61.8444 126.927 61.6041L127.036 61.4184C127.201 61.1222 127.383 60.8359 127.582 60.561C128.007 59.9412 128.488 59.3617 129.018 58.8298L129.062 58.7861C129.286 58.5676 129.543 58.3328 129.816 58.1089L129.87 58.0543C130.448 57.5858 131.061 57.1639 131.705 56.7927C132.397 56.3814 133.129 56.0428 133.89 55.7824C134.272 55.656 134.663 55.5538 135.058 55.4766C135.554 55.3924 136.053 55.3358 136.555 55.3073C137.66 55.2791 138.744 54.9969 139.722 54.4827H139.75C139.897 54.422 140.041 54.3527 140.181 54.2751C141.222 53.6052 142.058 52.6601 142.595 51.5445C142.758 51.2386 142.902 50.9231 143.026 50.5997C143.395 49.6922 143.59 48.7232 143.6 47.7435C143.6 47.5797 143.6 47.4213 143.6 47.2684C143.603 47.2266 143.603 47.1846 143.6 47.1428C143.596 47.0363 143.583 46.9304 143.562 46.826C143.562 46.7769 143.562 46.7441 143.562 46.7004C143.562 46.6567 143.518 46.5038 143.496 46.4219C143.474 46.34 143.469 46.3454 143.458 46.3127C143.447 46.2799 143.398 46.1324 143.359 46.0451L143.321 45.9686C143.287 45.8812 143.245 45.7971 143.196 45.7174C143.187 45.6964 143.174 45.6777 143.157 45.6628C143.108 45.5808 143.054 45.5044 142.994 45.4225C142.934 45.3406 142.994 45.4225 142.966 45.3897L142.759 45.1822C142.681 45.116 142.597 45.0575 142.508 45.0074L137.543 42.1457C136.752 42.8556 136 43.6066 135.288 44.3958C134.284 45.5942 133.09 46.6199 131.754 47.4322C130.897 47.9237 130.192 48.3333 129.685 48.0384L124.884 45.2641C124.851 44.1719 124.851 42.9868 124.884 41.7307V31.1523L113.263 24.4459L154.664 0.503906L169.732 9.19817L169.704 65.0392L160.317 70.4567C154.599 73.7335 154.599 75.2462 154.599 77.9386C154.572 79.3965 154.824 80.8461 155.341 82.2093C155.946 83.8559 156.282 85.5894 156.335 87.3428C156.335 87.6104 156.368 87.9326 156.374 88.2549C156.294 91.2755 155.457 94.2277 153.938 96.8399L144.424 102.328C144.135 102.147 143.867 101.933 143.627 101.689C142.568 100.597 141.989 98.7623 141.989 96.5395C141.989 96.2392 141.989 95.9224 142.032 95.5729C142.032 95.5729 142.032 95.5729 142.032 95.5401C142.032 94.994 142.082 94.4861 142.147 93.9018C142.147 93.7434 142.185 93.5741 142.207 93.4157C142.245 93.0717 142.295 92.744 142.349 92.4327C142.404 92.1214 142.447 91.8538 142.502 91.5753C142.535 91.4278 142.562 91.2858 142.589 91.1493C142.715 90.5431 142.857 89.9369 143.021 89.287C143.488 87.6188 143.736 85.8967 143.758 84.1644C143.758 82.526 143.616 81.7888 143.168 81.5266L137.789 78.4192L128.642 83.7057L124.884 85.8902Z" fill="white"/>
</mask>
<g mask="url(#mask1_6232_56830)">
<path d="M146.931 97.1404L135.282 90.4122C135.227 90.3845 135.174 90.3535 135.123 90.3194C134.474 89.8279 134.173 88.8066 134.173 87.5888C134.161 87.3923 134.161 87.1954 134.173 86.999V86.928C134.256 85.3521 134.511 83.7901 134.932 82.2695C135.118 81.4886 135.315 80.6312 135.478 79.7519L138.002 78.2938L138.1 78.2391L138.16 78.2064L140.148 77.1414L140.202 77.1141C140.827 76.8029 141.473 76.5365 142.136 76.3168H142.212L142.469 76.2349C142.571 76.2018 142.675 76.1762 142.78 76.1584H142.84C142.96 76.1256 143.086 76.0929 143.212 76.071L143.539 76.0273C143.665 76.0273 143.796 76.0273 143.922 76.0273C144.047 76.0273 144.118 76.0273 144.211 76.0273C144.341 76.0296 144.471 76.0442 144.599 76.071H144.648L144.834 76.1038C144.984 76.1443 145.132 76.1954 145.276 76.2567L145.407 76.3113C145.797 76.5189 146.132 76.8166 146.385 77.1797C146.407 77.2109 146.427 77.2438 146.445 77.278C146.564 77.4497 146.666 77.6326 146.75 77.8241C146.75 77.8623 146.789 77.906 146.805 77.9388V77.977C146.887 78.1791 146.958 78.3975 147.029 78.6269L147.073 78.8016C147.145 79.069 147.2 79.3408 147.236 79.6154L147.264 79.741C147.37 80.5173 147.419 81.3003 147.411 82.0838C147.389 84.4612 147.058 86.8255 146.428 89.1179C146.011 90.6411 145.758 92.2047 145.675 93.7818V93.8473C145.675 94.0985 145.647 94.2788 145.647 94.4426C145.647 95.6604 146.002 96.5943 146.647 97.0858L146.931 97.1404Z" fill="#9C9C9C"/>
<path d="M128.641 83.7133L117.063 76.9359V64.4079C117.024 62.57 117.141 60.7321 117.412 58.9139C117.817 56.6803 118.428 56.0031 120.187 54.9873C121.25 54.3333 122.467 53.9733 123.715 53.9442C124.124 53.9114 124.512 53.8732 124.905 53.8131L125.217 53.7585L125.763 53.6438C125.987 53.5783 126.227 53.5128 126.478 53.4254C126.582 53.3954 126.684 53.3589 126.784 53.3162C127.184 53.1701 127.574 52.9986 127.953 52.8028L128.002 52.7755C128.238 52.6803 128.466 52.5671 128.684 52.4369C130.836 51.1972 132.857 48.756 134.222 45.7524C134.315 45.5558 134.391 45.3591 134.473 45.168L134.184 45.4575C134.555 45.0915 134.916 44.6983 135.276 44.2942C136.528 42.8528 137.964 41.5821 139.547 40.515C139.77 40.347 140.006 40.1956 140.251 40.0618C144.211 37.7681 147.438 40.2092 147.438 45.4848C147.393 47.9238 146.834 50.3259 145.8 52.5352C144.429 55.5443 142.408 57.9964 140.257 59.2252C140.037 59.3514 139.809 59.4627 139.574 59.5583C139.558 59.5634 139.541 59.5634 139.525 59.5583C139.146 59.7631 138.756 59.9455 138.356 60.1045L138.05 60.2137C137.816 60.295 137.577 60.3643 137.335 60.4212C137.144 60.4704 136.969 60.5086 136.789 60.5414L136.472 60.596C136.084 60.6506 135.691 60.6997 135.282 60.727C134.035 60.7529 132.819 61.1131 131.759 61.7701C130.001 62.7805 129.383 63.4576 128.985 65.6913C128.709 67.5127 128.588 69.3543 128.624 71.1962V79.4426L128.641 83.7133Z" fill="#9C9C9C"/>
<path d="M129.706 47.9342L118.073 41.2059C117.391 40.7909 117.079 39.0651 117.079 34.7289L117.03 22.2773L128.652 28.9892V41.5063C128.652 45.8753 129.018 47.541 129.711 47.9287L129.706 47.9342Z" fill="#9C9C9C"/>
<path opacity="0.2" d="M146.931 97.1404L135.282 90.4122C135.227 90.3845 135.174 90.3535 135.123 90.3194C134.474 89.8279 134.173 88.8066 134.173 87.5888C134.161 87.3923 134.161 87.1954 134.173 86.999V86.928C134.256 85.3521 134.511 83.7901 134.932 82.2695C135.118 81.4886 135.315 80.6312 135.478 79.7519L138.002 78.2938L138.1 78.2391L138.16 78.2064L140.148 77.1414L140.202 77.1141C140.827 76.8029 141.473 76.5365 142.136 76.3168H142.212L142.469 76.2349C142.571 76.2018 142.675 76.1762 142.78 76.1584H142.84C142.96 76.1256 143.086 76.0929 143.212 76.071L143.539 76.0273C143.665 76.0273 143.796 76.0273 143.922 76.0273C144.047 76.0273 144.118 76.0273 144.211 76.0273C144.341 76.0296 144.471 76.0442 144.599 76.071H144.648L144.834 76.1038C144.984 76.1443 145.132 76.1954 145.276 76.2567L145.407 76.3113C145.797 76.5189 146.132 76.8166 146.385 77.1797C146.407 77.2109 146.427 77.2438 146.445 77.278C146.564 77.4497 146.666 77.6326 146.75 77.8241C146.75 77.8623 146.789 77.906 146.805 77.9388V77.977C146.887 78.1791 146.958 78.3975 147.029 78.6269L147.073 78.8016C147.145 79.069 147.2 79.3408 147.236 79.6154L147.264 79.741C147.37 80.5173 147.419 81.3003 147.411 82.0838C147.389 84.4612 147.058 86.8255 146.428 89.1179C146.011 90.6411 145.758 92.2047 145.675 93.7818V93.8473C145.675 94.0985 145.647 94.2788 145.647 94.4426C145.647 95.6604 146.002 96.5943 146.647 97.0858L146.931 97.1404Z" fill="black"/>
<path opacity="0.2" d="M128.641 83.7133L117.063 76.9359V64.4079C117.024 62.57 117.141 60.7321 117.412 58.9139C117.817 56.6803 118.428 56.0031 120.187 54.9873C121.25 54.3333 122.467 53.9733 123.715 53.9442C124.124 53.9114 124.512 53.8732 124.905 53.8131L125.217 53.7585L125.763 53.6438C125.987 53.5783 126.227 53.5128 126.478 53.4254C126.582 53.3954 126.684 53.3589 126.784 53.3162C127.184 53.1701 127.574 52.9986 127.953 52.8028L128.002 52.7755C128.238 52.6803 128.466 52.5671 128.684 52.4369C130.836 51.1972 132.857 48.756 134.222 45.7524C134.315 45.5558 134.391 45.3591 134.473 45.168L134.184 45.4575C134.555 45.0915 134.916 44.6983 135.276 44.2942C136.528 42.8528 137.964 41.5821 139.547 40.515C139.77 40.347 140.006 40.1956 140.251 40.0618C144.211 37.7681 147.438 40.2092 147.438 45.4848C147.393 47.9238 146.834 50.3259 145.8 52.5352C144.429 55.5443 142.408 57.9964 140.257 59.2252C140.037 59.3514 139.809 59.4627 139.574 59.5583C139.558 59.5634 139.541 59.5634 139.525 59.5583C139.146 59.7631 138.756 59.9455 138.356 60.1045L138.05 60.2137C137.816 60.295 137.577 60.3643 137.335 60.4212C137.144 60.4704 136.969 60.5086 136.789 60.5414L136.472 60.596C136.084 60.6506 135.691 60.6997 135.282 60.727C134.035 60.7529 132.819 61.1131 131.759 61.7701C130.001 62.7805 129.383 63.4576 128.985 65.6913C128.709 67.5127 128.588 69.3543 128.624 71.1962V79.4426L128.641 83.7133Z" fill="black"/>
<path opacity="0.2" d="M129.706 47.9342L118.073 41.2059C117.391 40.7909 117.079 39.0651 117.079 34.7289L117.03 22.2773L128.652 28.9892V41.5063C128.652 45.8753 129.018 47.541 129.711 47.9287L129.706 47.9342Z" fill="black"/>
<path d="M147.018 97.1946L146.931 97.1455L146.745 97.0253C146.101 96.5338 145.746 95.5999 145.746 94.3821C145.746 94.2182 145.746 94.038 145.773 93.7868V93.7213C145.857 92.1442 146.11 90.5806 146.527 89.0574C147.157 86.765 147.488 84.4006 147.51 82.0233C147.518 81.2398 147.469 80.4568 147.362 79.6805L147.335 79.5549C147.299 79.2803 147.244 79.0085 147.171 78.7411L147.128 78.5664C147.057 78.337 146.986 78.1186 146.904 77.9165V77.8783C146.904 77.8455 146.871 77.8018 146.849 77.7636C146.765 77.5721 146.663 77.3892 146.543 77.2175C146.526 77.1832 146.506 77.1504 146.483 77.1191C146.231 76.7561 145.896 76.4584 145.506 76.2508L145.375 76.1962C145.231 76.1348 145.083 76.0837 144.932 76.0433L144.747 76.0105H144.697C144.57 75.9837 144.44 75.9691 144.31 75.9668C144.217 75.9668 144.119 75.9668 144.02 75.9668C143.922 75.9668 143.764 75.9668 143.638 75.9668L143.31 76.0105C143.185 76.0105 143.059 76.0651 142.939 76.0979H142.879C142.773 76.1157 142.669 76.1413 142.568 76.1744L142.311 76.2563H142.234C141.572 76.476 140.926 76.7424 140.301 77.0536L140.247 77.0809L138.259 78.1459L138.199 78.1786L138.1 78.2332L135.577 79.6914L128.641 83.7108V79.4347V71.1883C128.604 69.3484 128.723 67.5086 128.996 65.6888C129.395 63.4552 130.012 62.778 131.771 61.7677C132.83 61.1107 134.047 60.7504 135.293 60.7246C135.703 60.7246 136.096 60.6481 136.484 60.5935L136.8 60.5389C136.981 60.5061 137.155 60.4679 137.347 60.4187C137.588 60.3618 137.827 60.2925 138.062 60.2112L138.368 60.102C138.768 59.943 139.158 59.7606 139.537 59.5559C139.553 59.5609 139.57 59.5609 139.586 59.5559C139.82 59.4602 140.049 59.3489 140.268 59.2227C142.42 57.9721 144.441 55.5419 145.812 52.5327C146.846 50.3235 147.404 47.9213 147.45 45.4823C147.45 40.2067 144.222 37.7656 140.263 40.0593C140.017 40.1931 139.782 40.3446 139.558 40.5126C137.975 41.5797 136.539 42.8503 135.288 44.2917C134.911 44.6959 134.55 45.0891 134.195 45.455C133.618 46.0332 132.985 46.5527 132.306 47.006L132.06 47.1589L131.776 47.3282C131.448 47.5139 131.154 47.6886 130.875 47.8142L130.607 47.9234C130.527 47.9582 130.443 47.9821 130.356 47.9944C130.281 48.02 130.201 48.0329 130.121 48.0327C129.976 48.0374 129.832 48.0015 129.706 47.9289C129.013 47.5412 128.647 45.8864 128.647 41.5065V28.9894L117.025 22.2775L152.731 1.6232C152.862 1.5522 152.982 1.4812 153.113 1.42113C153.229 1.36098 153.35 1.30986 153.474 1.26822L153.834 1.15353C153.946 1.11594 154.061 1.08853 154.178 1.07161C154.324 1.04475 154.472 1.02832 154.62 1.02246C155.22 0.995619 155.813 1.15388 156.319 1.47574L167.787 8.08928C168.142 8.28405 168.452 8.54991 168.699 8.87024C168.785 8.98014 168.863 9.09503 168.934 9.21429C168.986 9.2936 169.033 9.37564 169.076 9.46005C169.164 9.63481 169.246 9.81503 169.322 10.0062C169.349 10.1045 169.388 10.2028 169.415 10.3065C169.62 11.0161 169.718 11.7525 169.704 12.491V60.0364L160.317 65.454L160.147 65.5632L160.033 65.6287H160.005L158.143 66.7811C157.401 67.2684 156.688 67.7991 156.008 68.3703L155.958 68.4085L155.849 68.5013L155.363 68.9382L155.325 68.9819C155.254 69.042 155.183 69.113 155.117 69.1785C155.052 69.2441 154.828 69.4625 154.691 69.61C154.555 69.7574 154.506 69.8011 154.424 69.8994C154.342 69.9977 154.156 70.1943 154.031 70.3472L153.774 70.6694L153.414 71.15L153.217 71.4395L153.173 71.5159L153.124 71.5924C153.031 71.7289 152.933 71.8709 152.846 72.0184C152.758 72.1658 152.725 72.2314 152.671 72.3406L152.627 72.428C152.458 72.7338 152.294 73.056 152.147 73.3837L152.114 73.4656C152.048 73.6021 151.988 73.7441 151.934 73.8806C151.884 74.0226 151.83 74.1646 151.781 74.3121L151.737 74.4213L151.573 74.9237C151.518 75.104 151.469 75.2842 151.42 75.4699C151.371 75.6555 151.327 75.8412 151.284 76.016C151.24 76.1907 151.207 76.3819 151.174 76.5621C151.142 76.7423 151.103 76.9608 151.076 77.1628V77.1956C151.076 77.3649 151.021 77.5342 151.005 77.7035C150.989 77.8728 150.961 78.1295 150.94 78.3698V78.5008C150.94 78.6264 150.94 78.7521 150.912 78.8777C150.912 79.1453 150.912 79.4238 150.912 79.817V79.888C150.912 79.9535 150.912 80.0245 150.912 80.09C150.872 82.1018 151.205 84.1035 151.895 85.9936C152.353 87.2184 152.607 88.5097 152.649 89.8165V89.8766C152.649 90.0513 152.676 90.2315 152.682 90.379C152.682 92.8966 151.142 95.8402 149.252 96.9325C148.907 97.1432 148.522 97.2791 148.122 97.3311C148.04 97.3392 147.958 97.3392 147.876 97.3311H147.838C147.787 97.3395 147.735 97.3395 147.685 97.3311C147.64 97.3395 147.593 97.3395 147.548 97.3311L147.439 97.3038L147.308 97.2656C147.273 97.2592 147.24 97.2463 147.21 97.2274C147.144 97.2356 147.077 97.2242 147.018 97.1946Z" fill="#9C9C9C"/>
<path opacity="0.3" d="M128.641 28.9894L117.02 22.2775L152.725 1.6232C152.856 1.5522 152.976 1.4812 153.107 1.42113C153.223 1.36098 153.344 1.30986 153.468 1.26822L153.828 1.15353C153.94 1.11594 154.055 1.08853 154.172 1.07161C154.318 1.04475 154.466 1.02832 154.615 1.02246C155.214 0.995619 155.807 1.15388 156.313 1.47574L167.651 8.02921C167.552 7.97742 167.447 7.93711 167.339 7.90906C167.315 7.90238 167.291 7.89323 167.268 7.88176C167.169 7.84777 167.067 7.82398 166.962 7.81076H166.859C166.792 7.80213 166.724 7.80213 166.657 7.81076H166.46C166.444 7.80801 166.427 7.80801 166.411 7.81076C166.316 7.80254 166.221 7.80254 166.127 7.81076L165.908 7.84353C165.76 7.86179 165.614 7.89472 165.472 7.94183L165.253 8.00736L164.827 8.17666C164.663 8.25312 164.499 8.3405 164.325 8.4388L128.641 28.9894Z" fill="white"/>
</g>
<mask id="mask2_6232_56830" style="mask-type:luminance" maskUnits="userSpaceOnUse" x="72" y="24" width="72" height="86">
<path d="M83.8336 109.584L72.2012 102.878L72.2449 55.2451C72.2871 53.3501 72.7399 51.4869 73.5719 49.7838C74.5604 47.6976 76.0131 45.9009 77.6351 44.9616L113.253 24.4492L124.875 31.1556V41.6248V45.1582L129.67 47.927C130.188 48.2274 130.882 47.8233 131.745 47.3263C133.081 46.514 134.274 45.4882 135.278 44.2898C135.99 43.5007 136.743 42.7497 137.534 42.0398L142.498 44.9015C142.537 44.9212 142.573 44.945 142.607 44.9725C142.613 44.9696 142.62 44.9681 142.626 44.9681C142.633 44.9681 142.64 44.9696 142.645 44.9725C142.69 44.9977 142.73 45.0289 142.766 45.0653C142.942 45.2203 143.09 45.4052 143.203 45.6115C143.244 45.6665 143.277 45.7272 143.301 45.7917C143.328 45.8383 143.35 45.8878 143.366 45.9391C143.46 46.1548 143.529 46.3801 143.574 46.6109C143.577 46.6472 143.577 46.6837 143.574 46.7201C143.574 46.8566 143.618 47.0095 143.634 47.1624C143.65 47.3154 143.634 47.4737 143.634 47.6376C143.642 47.7904 143.642 47.9435 143.634 48.0963C143.634 48.2602 143.607 48.4185 143.585 48.5714C143.563 48.7244 143.536 48.8882 143.508 49.0466C143.481 49.2049 143.459 49.2869 143.426 49.407C143.407 49.4938 143.384 49.5795 143.355 49.6637C143.186 50.2802 142.948 50.8756 142.645 51.4386C142.108 52.5542 141.273 53.4993 140.232 54.1692C140.092 54.2468 139.948 54.3161 139.8 54.3767H139.773C138.794 54.891 137.711 55.1732 136.605 55.2014C136.256 55.2014 135.901 55.256 135.513 55.3106L135.114 55.3707C134.16 55.5604 133.239 55.8936 132.384 56.3591C132.28 56.4083 132.182 56.4575 132.089 56.5121L131.778 56.6868C131.134 57.058 130.52 57.4798 129.943 57.9484L129.888 58.003C129.615 58.2269 129.342 58.4617 129.134 58.6802L129.091 58.7239C128.56 59.2557 128.079 59.8352 127.654 60.4551C127.456 60.73 127.274 61.0163 127.108 61.3125L126.999 61.4982C126.857 61.7603 126.731 62.0443 126.606 62.2846V62.3283C126.573 62.3883 126.546 62.4539 126.519 62.5085C126.404 62.7925 126.278 63.0819 126.169 63.3768L126.12 63.5243C126 63.8738 125.88 64.2288 125.787 64.5728C125.787 64.622 125.759 64.6657 125.759 64.6821C125.683 64.9879 125.601 65.2937 125.535 65.6105C125.535 65.7033 125.497 65.8016 125.475 65.8944V65.9709C125.426 66.2003 125.393 66.4351 125.35 66.6754C125.35 66.8119 125.301 66.9594 125.279 67.1068C125.257 67.2543 125.219 67.5437 125.197 67.7677V67.8769C125.174 67.9922 125.159 68.109 125.153 68.2264C125.153 68.4558 125.104 68.6906 125.082 68.9364V69.062C125.082 69.1439 125.082 69.2313 125.082 69.3241V69.4006L124.957 73.2234V85.7842L121.68 87.6847L120.637 88.2909L118.578 89.4651L115.58 91.2018C113.493 92.4087 112.052 93.0203 111.156 93.0913C111.018 93.1084 110.879 93.1084 110.741 93.0913C110.648 93.071 110.558 93.038 110.473 92.993L106.197 90.4918C106.195 90.4737 106.195 90.4553 106.197 90.4372C106.246 89.8911 106.312 89.3449 106.388 88.8534C106.438 88.5367 106.492 88.2309 106.552 87.9469C106.711 87.0512 106.913 86.2484 107.098 85.4839C107.522 83.9641 107.773 82.4014 107.847 80.8254V80.7927V80.749C107.847 80.4923 107.847 80.323 107.874 80.1646C107.874 78.9468 107.513 78.0074 106.869 77.5214C106.838 77.4977 106.805 77.4758 106.771 77.4559L106.683 77.4067L101.905 74.6488C100.58 76.1159 99.5132 77.7961 98.7482 79.6185C98.6444 79.8697 98.5407 80.1209 98.4478 80.3612C98.355 80.6015 98.2567 80.8691 98.1748 81.1258L98.1365 81.235C98.0491 81.4917 97.9727 81.7484 97.8962 82.0051C97.8198 82.2617 97.7542 82.5239 97.6942 82.7805C97.6341 83.0372 97.6122 83.1355 97.574 83.3267C97.5358 83.5178 97.503 83.6816 97.4812 83.8728C97.4143 84.2341 97.3669 84.5987 97.3392 84.965C97.3119 85.1616 97.2955 85.3637 97.2846 85.5603C97.2736 85.7569 97.2573 86.0682 97.2573 86.314C97.2573 86.5597 97.2573 86.6416 97.2573 86.8C97.2573 86.9584 97.2573 87.1004 97.29 87.2369C97.29 87.4717 97.29 87.6902 97.3283 87.9032C97.3571 88.3975 97.4137 88.8897 97.4976 89.3777C97.4976 89.5743 97.5576 89.7655 97.5959 89.9238C97.7693 90.7422 97.9955 91.5485 98.2731 92.3377C98.6062 93.2175 98.8318 94.1344 98.9448 95.0683V95.1721V95.254V95.3687C98.9776 95.7728 98.9939 96.1715 98.9939 96.5865C98.9939 99.2789 98.9939 100.764 93.2706 104.068L83.8336 109.584Z" fill="white"/>
</mask>
<g mask="url(#mask2_6232_56830)">
<path d="M110.369 93.0824L98.7861 86.2886C98.3328 86.021 98.1908 85.2728 98.1908 83.6563C98.1928 82.3242 98.3523 80.997 98.666 79.7023C98.3169 80.5066 98.0214 81.3331 97.7812 82.1763C98.8735 78.1623 101.424 74.3449 104.335 72.6519C106.252 71.5597 108.054 71.4996 109.414 72.5263C110.774 73.553 111.522 75.5136 111.522 78.0804C111.522 78.3261 111.522 78.5664 111.494 78.7849V78.905C111.494 78.9651 111.494 79.0252 111.494 79.0852C111.494 79.6313 111.429 80.1775 111.369 80.7509C111.363 80.8425 111.352 80.9337 111.336 81.024V81.1059C111.287 81.4936 111.238 81.8705 111.178 82.2473C111.134 82.4712 111.09 82.6951 111.052 82.9135C111.014 83.132 110.965 83.3559 110.921 83.5744C110.801 84.1205 110.664 84.7158 110.522 85.311C110.049 86.9801 109.797 88.7043 109.774 90.4391C109.769 92.0665 109.883 92.8148 110.369 93.0824Z" fill="#9C9C9C"/>
<path d="M83.8336 109.588L72.2012 102.882L72.2449 55.2542C72.2831 53.3587 72.7361 51.4946 73.5719 49.793L85.1825 56.4939C84.3284 58.2196 83.8641 60.112 83.8227 62.037L83.8336 109.588Z" fill="#9C9C9C"/>
<path d="M110.37 93.0824L98.7867 86.2886C98.3334 86.021 98.1914 85.2728 98.1914 83.6563C98.1934 82.3242 98.3529 80.997 98.6665 79.7023C99.9772 76.6604 102.036 73.9899 104.357 72.6519C106.274 71.5597 108.076 71.4996 109.436 72.5263C110.796 73.553 111.522 75.5136 111.522 78.0804C111.522 78.3261 111.522 78.5664 111.495 78.7849V78.905C111.495 78.9651 111.495 79.0252 111.495 79.0852C111.495 79.6313 111.429 80.1775 111.369 80.7509C111.364 80.8425 111.353 80.9337 111.337 81.024V81.1059C111.287 81.4936 111.238 81.8705 111.178 82.2473C111.135 82.4712 111.091 82.6951 111.053 82.9135C111.014 83.132 110.965 83.3559 110.922 83.5744C110.801 84.1205 110.665 84.7158 110.523 85.311C110.049 86.9801 109.798 88.7043 109.775 90.4391C109.769 92.0665 109.884 92.8148 110.37 93.0824Z" fill="#4E4E4E"/>
<path d="M83.8336 109.588L72.2012 102.882L72.2449 55.2542C72.2831 53.3587 72.7361 51.4946 73.5719 49.793L85.1825 56.4939C84.3284 58.2196 83.8641 60.112 83.8227 62.037L83.8336 109.588Z" fill="#4E4E4E"/>
<path d="M83.8337 109.59V62.0334C83.8752 60.1084 84.3394 58.216 85.1936 56.4903L73.583 49.7894C73.6158 49.7184 73.6431 49.6528 73.6758 49.5873C73.7239 49.4784 73.7786 49.3727 73.8397 49.2706C73.9161 49.1231 73.9926 48.9811 74.0745 48.8391C74.1564 48.6971 74.2711 48.4951 74.3804 48.3367L74.4404 48.222C74.455 48.1989 74.4715 48.177 74.4896 48.1565C74.5824 48.0036 74.6916 47.8452 74.8009 47.6923L74.8992 47.5557C74.9549 47.4693 75.0169 47.3872 75.0848 47.31C75.1438 47.2262 75.2077 47.146 75.276 47.0697L75.3306 46.9987C75.4289 46.8731 75.5327 46.7475 75.6419 46.6328L75.773 46.4963C75.801 46.4609 75.8321 46.428 75.8658 46.3979L75.9259 46.327L76.0406 46.2232L76.2426 46.0266C76.2601 46.0073 76.2803 45.9908 76.3027 45.9774C76.3628 45.9228 76.4174 45.8628 76.472 45.8191L76.5321 45.7699H76.5594L76.7068 45.6607C76.7614 45.6115 76.8215 45.5733 76.8761 45.5296C76.9307 45.4859 76.9854 45.4422 77.04 45.3986C77.1047 45.3493 77.1722 45.3037 77.242 45.262C77.3608 45.1701 77.4868 45.0879 77.6189 45.0163L113.242 24.5039L124.864 31.2158V41.6795L125.033 41.5047C125.97 40.4069 127.052 39.4423 128.25 38.6376H128.294C128.406 38.5531 128.522 38.4747 128.643 38.4027C128.969 38.1773 129.352 38.0499 129.748 38.0354C130.144 38.0208 130.535 38.1199 130.877 38.3208L142.46 45.0108C142.523 45.0419 142.581 45.0804 142.635 45.1255L142.733 45.202C143.136 45.5779 143.411 46.0707 143.519 46.6109C143.552 46.7475 143.58 46.8949 143.601 47.0424C143.633 47.285 143.648 47.5295 143.645 47.7742C143.616 49.1004 143.273 50.4009 142.646 51.5697C142.106 52.6851 141.268 53.6299 140.226 54.3003C140.087 54.381 139.943 54.4539 139.795 54.5188H139.768C138.789 55.0336 137.705 55.3158 136.6 55.3434C134.879 55.4066 133.205 55.9207 131.745 56.8344C131.101 57.2023 130.489 57.6244 129.916 58.0959L129.85 58.145C129.582 58.369 129.304 58.5983 129.096 58.8277L129.064 58.8659C128.53 59.3933 128.049 59.9713 127.627 60.5917C127.447 60.8593 127.272 61.1378 127.081 61.4491L126.999 61.5965V61.6402C126.857 61.8914 126.726 62.1864 126.601 62.4266V62.4649C126.571 62.5249 126.545 62.587 126.524 62.6506C126.399 62.9291 126.284 63.1967 126.175 63.5189L126.12 63.6609C125.994 64.0104 125.88 64.3708 125.787 64.7094L125.76 64.8241C125.678 65.1245 125.601 65.4358 125.536 65.7525C125.536 65.8399 125.492 65.9382 125.476 66.0311V66.1075C125.432 66.3423 125.394 66.5717 125.35 66.812C125.35 66.9485 125.301 67.096 125.284 67.238C125.268 67.38 125.219 67.6803 125.192 67.9097V68.0189C125.192 68.1282 125.164 68.2428 125.159 68.363C125.159 68.5924 125.11 68.8327 125.093 69.0675V69.1931C125.093 69.2805 125.093 69.3679 125.066 69.4552V69.5372L124.94 73.36V85.9208L121.664 87.8268L118.567 89.6126L115.569 91.3438C113.488 92.5508 112.035 93.1624 111.151 93.2279C111.082 93.2333 111.012 93.2333 110.943 93.2279C110.774 93.2261 110.608 93.1849 110.457 93.1078C109.993 92.8402 109.856 92.092 109.856 90.4646C109.879 88.7298 110.131 87.0055 110.605 85.3365C110.747 84.7412 110.883 84.1623 111.003 83.5998C111.047 83.3814 111.096 83.1629 111.134 82.939C111.173 82.7151 111.216 82.4966 111.26 82.2727C111.32 81.8959 111.369 81.5191 111.418 81.1313V81.0494C111.435 80.9591 111.446 80.8679 111.451 80.7764C111.511 80.2029 111.555 79.6841 111.577 79.1107C111.577 79.0506 111.577 78.9905 111.577 78.9305V78.7939C111.577 78.5755 111.61 78.3352 111.604 78.0894C111.604 75.5281 110.861 73.5566 109.501 72.5299C108.142 71.5032 106.339 71.5414 104.423 72.6555C102.102 73.9935 100.054 76.6641 98.7319 79.706C98.462 80.3066 98.2286 80.9231 98.0329 81.5519C97.9674 81.7594 97.9018 81.9724 97.8472 82.1799C97.7926 82.3874 97.7162 82.6769 97.6561 82.9281C97.6388 82.9699 97.6277 83.0141 97.6233 83.0591C97.5687 83.2994 97.5195 83.5452 97.4813 83.7855C97.3875 84.3042 97.3201 84.8273 97.2793 85.3529C97.2682 85.5092 97.2682 85.6662 97.2793 85.8225C97.2793 86.0082 97.2793 86.1939 97.2793 86.3686C97.2793 86.6909 97.2793 87.0295 97.3175 87.2916C97.3705 89.0411 97.7042 90.7706 98.306 92.4142C98.6366 93.2948 98.8621 94.2114 98.9777 95.1448V95.2541V95.2868V95.3305C98.975 95.3687 98.975 95.407 98.9777 95.4452C99.005 95.8493 99.0268 96.248 99.0268 96.6631C99.0268 99.3554 99.0268 100.841 93.3089 104.145L83.8337 109.59Z" fill="#595959"/>
<path d="M130.936 38.2053L142.519 44.8953C142.164 44.7187 141.768 44.6422 141.372 44.6739C140.977 44.7057 140.597 44.8445 140.275 45.0755C140.177 45.1302 140.051 45.2175 139.925 45.3049L139.887 45.3432H139.86C138.661 46.1465 137.578 47.1113 136.643 48.2103C135.252 49.8269 133.613 51.213 131.788 52.3171L131.559 52.4427L131.471 52.4864L131.406 52.5192C131.231 52.612 131.062 52.7103 130.903 52.7868L130.598 52.9179L130.494 52.9561L130.434 52.9889L130.051 53.1309C129.938 53.1755 129.821 53.212 129.702 53.2401H129.658L129.27 53.3329C129.139 53.3657 129.019 53.3712 128.894 53.393H128.533C128.419 53.393 128.304 53.393 128.195 53.393C128.085 53.393 127.982 53.3548 127.878 53.3384C127.774 53.3183 127.671 53.2891 127.572 53.251C127.475 53.2181 127.382 53.176 127.294 53.1254H127.244C127.164 53.0861 127.085 53.0424 127.01 52.9943C126.936 52.9418 126.866 52.8834 126.802 52.8196L126.758 52.7868L126.715 52.7431C126.655 52.694 126.589 52.6339 126.529 52.5738C126.459 52.4916 126.393 52.406 126.332 52.3171L126.3 52.268C126.178 52.0934 126.069 51.9109 125.972 51.7219L125.939 51.6509C125.892 51.5681 125.85 51.4823 125.814 51.3942C125.775 51.3013 125.732 51.1867 125.693 51.0774V51.001V50.9354C125.661 50.8371 125.622 50.7498 125.59 50.6405C125.557 50.5313 125.513 50.3456 125.475 50.1927C125.437 50.0398 125.404 49.9306 125.382 49.794C125.36 49.6575 125.317 49.4664 125.289 49.2916C125.262 49.1169 125.24 49.0076 125.218 48.8656C125.196 48.7236 125.175 48.4997 125.153 48.3195C125.131 48.1393 125.12 48.0191 125.104 47.8662C125.087 47.7133 125.065 47.4676 125.054 47.2546C125.054 47.1454 125.054 47.0143 125.054 46.8887V46.7248C125.054 46.5337 125.054 46.3316 125.022 46.1241V46.0422L124.983 43.8577V41.5968C125.033 41.5367 125.093 41.4821 125.142 41.4275C126.078 40.3297 127.161 39.365 128.358 38.5603H128.386L128.429 38.5275C128.539 38.4436 128.654 38.367 128.773 38.2982C129.091 38.0875 129.461 37.9675 129.842 37.9511C130.223 37.9348 130.601 38.0227 130.936 38.2053Z" fill="black"/>
<path d="M85.1996 56.4934L73.5781 49.7816C73.6109 49.7106 73.6382 49.6505 73.6764 49.585C73.7244 49.4761 73.7792 49.3703 73.8403 49.2682C73.9167 49.1208 73.9932 48.9788 74.0751 48.8368C74.157 48.6948 74.2717 48.4927 74.3809 48.3343C74.4121 48.2712 74.4486 48.2109 74.4901 48.1541C74.583 48.0012 74.6922 47.8428 74.8014 47.6899L74.8997 47.5534C74.9554 47.467 75.0175 47.3848 75.0854 47.3076C75.1612 47.1992 75.2433 47.0953 75.3312 46.9963C75.4295 46.8707 75.5332 46.7451 75.6425 46.6304L75.7735 46.4939C75.8016 46.4585 75.8327 46.4257 75.8664 46.3956L76.0411 46.2208L76.2432 46.0242C76.2607 46.005 76.2809 45.9884 76.3033 45.9751C76.3744 45.9003 76.4511 45.8309 76.5326 45.7676H76.5599L76.7074 45.6583C76.8136 45.565 76.9248 45.4775 77.0405 45.3962C77.1053 45.347 77.1728 45.3014 77.2426 45.2597C77.3614 45.1677 77.4874 45.0855 77.6194 45.0139L113.238 24.4961L124.859 31.2079L109.202 40.2463L89.1918 51.8077C89.0388 51.8951 88.8914 51.9879 88.7439 52.0862C88.5965 52.1845 88.4709 52.2828 88.3453 52.392C88.2715 52.4405 88.202 52.4953 88.1377 52.5559C88.0067 52.6596 87.8756 52.7852 87.75 52.9054C87.6244 53.0255 87.4442 53.2057 87.2967 53.3587C86.9684 53.7171 86.6638 54.0966 86.3847 54.4946C86.2755 54.6475 86.1662 54.8004 86.0625 54.9643C85.7429 55.4553 85.4547 55.966 85.1996 56.4934Z" fill="#676767"/>
</g>
</g>
</svg>
