<svg width="24" height="24" viewBox="0 0 24 24" fill="none" xmlns="http://www.w3.org/2000/svg">
<path fill-rule="evenodd" clip-rule="evenodd" d="M8.11621 3.53211C8.28952 3.20475 8.62959 3 9 3H15C15.3704 3 15.7105 3.20475 15.8838 3.53211L17.6021 6.77778H20C20.5523 6.77778 21 7.22549 21 7.77778C21 8.33006 20.5523 8.77778 20 8.77778H19V19.1111C19 19.8963 18.6692 20.637 18.1008 21.1738C17.5344 21.7087 16.7778 22 16 22H8C7.22221 22 6.46558 21.7087 5.89916 21.1738C5.3308 20.637 5 19.8963 5 19.1111V8.77778H4C3.44772 8.77778 3 8.33006 3 7.77778C3 7.22549 3.44772 6.77778 4 6.77778H6.39792L8.11621 3.53211ZM7 8.77798C7.00638 8.77797 7.01275 8.77791 7.01912 8.77778H16.9809C16.9872 8.77791 16.9936 8.77797 17 8.77798V19.1111C17 19.3278 16.9094 19.5481 16.7276 19.7197C16.5439 19.8933 16.2831 20 16 20H8C7.71693 20 7.45614 19.8933 7.27241 19.7197C7.09062 19.5481 7 19.3278 7 19.1111V8.77798ZM15.3391 6.77778H8.6609L9.60208 5H14.3979L15.3391 6.77778ZM10 10.5556C10.5523 10.5556 11 11.0033 11 11.5556V17.2222C11 17.7745 10.5523 18.2222 10 18.2222C9.44772 18.2222 9 17.7745 9 17.2222V11.5556C9 11.0033 9.44772 10.5556 10 10.5556ZM14 10.5556C14.5523 10.5556 15 11.0033 15 11.5556V17.2222C15 17.7745 14.5523 18.2222 14 18.2222C13.4477 18.2222 13 17.7745 13 17.2222V11.5556C13 11.0033 13.4477 10.5556 14 10.5556Z" fill="#6E7A87"/>
</svg>
